<mxfile host="Electron" agent="Mozilla/5.0 (Macintosh; Intel Mac OS X 10_15_7) AppleWebKit/537.36 (KHTML, like Gecko) draw.io/24.7.17 Chrome/128.0.6613.36 Electron/32.0.1 Safari/537.36" version="24.7.17">
  <diagram name="Page-1" id="RGFAZBD8Lr9NI2fUV3Ky">
    <mxGraphModel dx="2924" dy="1214" grid="1" gridSize="10" guides="1" tooltips="1" connect="1" arrows="1" fold="1" page="1" pageScale="1" pageWidth="850" pageHeight="1100" math="0" shadow="0">
      <root>
        <mxCell id="0" />
        <mxCell id="1" parent="0" />
        <mxCell id="-mRjpvmb773yfTm-OAYF-1" value="" style="rounded=0;whiteSpace=wrap;html=1;" vertex="1" parent="1">
          <mxGeometry x="-790" y="90" width="730" height="470" as="geometry" />
        </mxCell>
        <mxCell id="5-FgoGMA3iOS2s11DoEu-4" style="rounded=0;orthogonalLoop=1;jettySize=auto;html=1;entryX=0.5;entryY=1;entryDx=0;entryDy=0;fillColor=#dae8fc;strokeColor=#6c8ebf;" parent="1" source="ELrXMFgpvrQVn_nDHaCE-1" target="5-FgoGMA3iOS2s11DoEu-1" edge="1">
          <mxGeometry relative="1" as="geometry" />
        </mxCell>
        <mxCell id="ELrXMFgpvrQVn_nDHaCE-1" value="db: mydb" style="shape=image;verticalLabelPosition=bottom;labelBackgroundColor=#ffffff;verticalAlign=top;aspect=fixed;imageAspect=0;image=data:image/svg+xml,PHN2ZyB4bWxuczpjYz0iaHR0cDovL2NyZWF0aXZlY29tbW9ucy5vcmcvbnMjIiB4bWxuczpkYz0iaHR0cDovL3B1cmwub3JnL2RjL2VsZW1lbnRzLzEuMS8iIHhtbG5zOmlua3NjYXBlPSJodHRwOi8vd3d3Lmlua3NjYXBlLm9yZy9uYW1lc3BhY2VzL2lua3NjYXBlIiB4bWxuczpyZGY9Imh0dHA6Ly93d3cudzMub3JnLzE5OTkvMDIvMjItcmRmLXN5bnRheC1ucyMiIHhtbG5zOnNvZGlwb2RpPSJodHRwOi8vc29kaXBvZGkuc291cmNlZm9yZ2UubmV0L0RURC9zb2RpcG9kaS0wLmR0ZCIgeG1sbnM6c3ZnPSJodHRwOi8vd3d3LnczLm9yZy8yMDAwL3N2ZyIgeG1sbnM9Imh0dHA6Ly93d3cudzMub3JnLzIwMDAvc3ZnIiB4bWxuczp4bGluaz0iaHR0cDovL3d3dy53My5vcmcvMTk5OS94bGluayIgdmVyc2lvbj0iMS4xIiBpZD0ic3ZnMTAyNzIyIiBpbmtzY2FwZTp2ZXJzaW9uPSIwLjkyLjMgKDI0MDU1NDYsIDIwMTgtMDMtMTEpIiBzb2RpcG9kaTpkb2NuYW1lPSJwb3N0Z3Jlc3FsLnN2ZyIgeD0iMHB4IiB5PSIwcHgiIHZpZXdCb3g9IjAgMCA0Ni4wMyA2MC40NyIgc3R5bGU9ImVuYWJsZS1iYWNrZ3JvdW5kOm5ldyAwIDAgNDYuMDMgNjAuNDc7IiB4bWw6c3BhY2U9InByZXNlcnZlIj4mI3hhOzxzb2RpcG9kaTpuYW1lZHZpZXcgYm9yZGVyY29sb3I9IiM2NjY2NjYiIGJvcmRlcm9wYWNpdHk9IjEiIGZpdC1tYXJnaW4tYm90dG9tPSIwIiBmaXQtbWFyZ2luLWxlZnQ9IjAiIGZpdC1tYXJnaW4tcmlnaHQ9IjAiIGZpdC1tYXJnaW4tdG9wPSIwIiBncmlkdG9sZXJhbmNlPSIxMCIgZ3VpZGV0b2xlcmFuY2U9IjEwIiBpZD0ibmFtZWR2aWV3MTAyNzI0IiBpbmtzY2FwZTpjdXJyZW50LWxheWVyPSJzdmcxMDI3MjIiIGlua3NjYXBlOmN4PSIzMC42ODk5ODMiIGlua3NjYXBlOmN5PSI0MC4zMTQ2NDUiIGlua3NjYXBlOnBhZ2VvcGFjaXR5PSIwIiBpbmtzY2FwZTpwYWdlc2hhZG93PSIyIiBpbmtzY2FwZTp3aW5kb3ctaGVpZ2h0PSIxMDE3IiBpbmtzY2FwZTp3aW5kb3ctbWF4aW1pemVkPSIxIiBpbmtzY2FwZTp3aW5kb3ctd2lkdGg9IjE5MjAiIGlua3NjYXBlOndpbmRvdy14PSItOCIgaW5rc2NhcGU6d2luZG93LXk9Ii04IiBpbmtzY2FwZTp6b29tPSIxMC40OTMzMTUiIG9iamVjdHRvbGVyYW5jZT0iMTAiIHBhZ2Vjb2xvcj0iI2ZmZmZmZiIgc2hvd2dyaWQ9ImZhbHNlIj4mI3hhOwk8L3NvZGlwb2RpOm5hbWVkdmlldz4mI3hhOzxnIGlkPSJnMTAyNzIwIiB0cmFuc2Zvcm09InRyYW5zbGF0ZSgtMC43NSwtMC43NTQ4KSI+JiN4YTsJPHRpdGxlIGlkPSJ0aXRsZTEwMjYwNSI+UGFnZS0xPC90aXRsZT4mI3hhOwk8ZyBpZD0iZ3JvdXAzNzA0LTEiIHRyYW5zZm9ybT0idHJhbnNsYXRlKDAuNzUsLTAuNzUpIj4mI3hhOwkJPHRpdGxlIGlkPSJ0aXRsZTEwMjYwNyI+UG9zdGdyZVNRTC42MzM8L3RpdGxlPiYjeGE7CQk8ZyBpZD0iZ3JvdXAzNzA1LTIiPiYjeGE7CQkJPHRpdGxlIGlkPSJ0aXRsZTEwMjYwOSI+Q0hlY2ttYXJrXzI8L3RpdGxlPiYjeGE7CQkJPGcgaWQ9InNoYXBlMzcwNi0zIj4mI3hhOwkJCQk8dGl0bGUgaWQ9InRpdGxlMTAyNjExIj5wYXRoMzY4NjwvdGl0bGU+JiN4YTsJCQkJPGcgaWQ9InNoYWRvdzM3MDYtNCI+JiN4YTsJCQkJPC9nPiYjeGE7CQkJCTxwYXRoIGlkPSJwYXRoMTAyNjE0IiBpbmtzY2FwZTpjb25uZWN0b3ItY3VydmF0dXJlPSIwIiBzdHlsZT0iZmlsbDojMzk5OEM1OyIgZD0iTTAsOS41NHY0NC4zMmMwLDQuNjYsMTAuMjgsOC4xMSwyMi44OCw4LjExICAgICAgVjkuNTRIMHoiLz4mI3hhOwkJCTwvZz4mI3hhOwkJCTxnIGlkPSJzaGFwZTM3MDctNiIgdHJhbnNmb3JtPSJ0cmFuc2xhdGUoMjIuODc5MykiPiYjeGE7CQkJCTx0aXRsZSBpZD0idGl0bGUxMDI2MTciPnBhdGgzNjg4PC90aXRsZT4mI3hhOwkJCQk8ZyBpZD0ic2hhZG93MzcwNy03Ij4mI3hhOwkJCQk8L2c+JiN4YTsJCQkJPHBhdGggaWQ9InBhdGgxMDI2MjAiIGlua3NjYXBlOmNvbm5lY3Rvci1jdXJ2YXR1cmU9IjAiIHN0eWxlPSJmaWxsOiM1OUIzRDg7IiBkPSJNMCw2MS45N2gwLjEyYzEyLjUyLDAsMjIuNzYtMy42NiwyMi43Ni04LjMxICAgICAgVjkuNTRIMFY2MS45N3oiLz4mI3hhOwkJCTwvZz4mI3hhOwkJCTxnIGlkPSJzaGFwZTM3MDgtOSIgdHJhbnNmb3JtPSJ0cmFuc2xhdGUoMCwtNDMuNzg1MikiPiYjeGE7CQkJCTx0aXRsZSBpZD0idGl0bGUxMDI2MjMiPnBhdGgzNjkwPC90aXRsZT4mI3hhOwkJCQk8ZyBpZD0ic2hhZG93MzcwOC0xMCI+JiN4YTsJCQkJPC9nPiYjeGE7CQkJCTxwYXRoIGlkPSJwYXRoMTAyNjI2IiBpbmtzY2FwZTpjb25uZWN0b3ItY3VydmF0dXJlPSIwIiBzdHlsZT0iZmlsbDojRkZGRkZGOyIgZD0iTTQ2LjAzLDUzLjY0YzAsNC41MS0xMC4zMSw4LjMzLTIyLjk1LDguMzMgICAgICBTMCw1OC4xNSwwLDUzLjY0YzAtNC41MiwxMC4zMS04LjM1LDIyLjk2LTguMzVDMzUuNiw0NS4yOSw0Ni4wMyw0OS4xLDQ2LjAzLDUzLjY0eiIvPiYjeGE7CQkJPC9nPiYjeGE7CQkJPGcgaWQ9InNoYXBlMzcwOS0xMiIgdHJhbnNmb3JtPSJ0cmFuc2xhdGUoNC42NjE2NSwtNDcuMDkzMikiPiYjeGE7CQkJCTx0aXRsZSBpZD0idGl0bGUxMDI2MjkiPnBhdGgzNjkyPC90aXRsZT4mI3hhOwkJCQk8ZyBpZD0ic2hhZG93MzcwOS0xMyI+JiN4YTsJCQkJPC9nPiYjeGE7CQkJCTxwYXRoIGlkPSJwYXRoMTAyNjMyIiBpbmtzY2FwZTpjb25uZWN0b3ItY3VydmF0dXJlPSIwIiBzdHlsZT0iZmlsbDojN0ZCOTAwOyIgZD0iTTM2LjcxLDU2LjQ1YzAsMy4wNy04LjIzLDUuNTItMTguMjksNS41MiAgICAgIEM4LjM1LDYxLjk3LDAsNTkuNTYsMCw1Ni40NXM4LjIzLTUuNTIsMTguMjktNS41MkMyOC4zNiw1MC45MywzNi43MSw1My4zOCwzNi43MSw1Ni40NXoiLz4mI3hhOwkJCTwvZz4mI3hhOwkJCTxnIGlkPSJzaGFwZTM3MTAtMTUiIHRyYW5zZm9ybT0idHJhbnNsYXRlKDQuNjYxNjUsLTQ5LjI5NTMpIj4mI3hhOwkJCQk8dGl0bGUgaWQ9InRpdGxlMTAyNjM1Ij5wYXRoMzY5NDwvdGl0bGU+JiN4YTsJCQkJPGcgaWQ9InNoYWRvdzM3MTAtMTYiPiYjeGE7CQkJCTwvZz4mI3hhOwkJCQk8cGF0aCBpZD0icGF0aDEwMjYzOCIgaW5rc2NhcGU6Y29ubmVjdG9yLWN1cnZhdHVyZT0iMCIgc3R5bGU9ImZpbGw6I0I3RDMzMjsiIGQ9Ik0zMi43OCw2MS45N2MyLjQ2LTAuOTYsMy44Mi0yLjA5LDMuODItMy4zMiAgICAgIGMwLTMuMDctOC4yMy01LjUyLTE4LjMtNS41MkM4LjI0LDUzLjEzLDAsNTUuNTgsMCw1OC42NWMwLDEuMjMsMS40OCwyLjQ2LDMuODEsMy4zMmMzLjMyLTEuMzYsOC41OC0yLjA5LDE0LjQ5LTIuMDkgICAgICBjNC45MS0wLjEsOS44MSwwLjYsMTQuNDksMi4wOUgzMi43OHoiLz4mI3hhOwkJCQk8cGF0aCBpZD0icGF0aDEwMjY0MCIgaW5rc2NhcGU6Y29ubmVjdG9yLWN1cnZhdHVyZT0iMCIgc3R5bGU9ImZpbGw6bm9uZTsiIGQ9Ik0zMi43OCw2MS45N2MyLjQ2LTAuOTYsMy44Mi0yLjA5LDMuODItMy4zMiAgICAgIGMwLTMuMDctOC4yMy01LjUyLTE4LjMtNS41MkM4LjI0LDUzLjEzLDAsNTUuNTgsMCw1OC42NWMwLDEuMjMsMS40OCwyLjQ2LDMuODEsMy4zMmMzLjMyLTEuMzYsOC41OC0yLjA5LDE0LjQ5LTIuMDkgICAgICBjNC45MS0wLjEsOS44MSwwLjYsMTQuNDksMi4wOSIvPiYjeGE7CQkJPC9nPiYjeGE7CQkJPGcgaWQ9Imdyb3VwMzcxMS0xOSIgdHJhbnNmb3JtPSJ0cmFuc2xhdGUoNy41NjkyMywtNy40NjQzNikiPiYjeGE7CQkJCTx0aXRsZSBpZD0idGl0bGUxMDI2NDMiPkxheWVyXzM8L3RpdGxlPiYjeGE7CQkJCTxnIGlkPSJzaGFwZTM3MTItMjAiIHRyYW5zZm9ybT0idHJhbnNsYXRlKDAuMDU3MTk4MikiPiYjeGE7CQkJCQk8dGl0bGUgaWQ9InRpdGxlMTAyNjQ1Ij5wYXRoMzY5NjwvdGl0bGU+JiN4YTsJCQkJCTxnIGlkPSJzaGFkb3czNzEyLTIxIj4mI3hhOwkJCQkJPC9nPiYjeGE7CQkJCQk8cGF0aCBpZD0icGF0aDEwMjY0OCIgaW5rc2NhcGU6Y29ubmVjdG9yLWN1cnZhdHVyZT0iMCIgc3R5bGU9ImZpbGw6IzMzNjc5MDsiIGQ9Ik0yOC4zMiw1MC4yM2MtMy42NSwwLjc2LTMuOTEtMC40OC0zLjkxLTAuNDggICAgICAgYzMuODItNS43Miw1LjQ4LTEzLDQuMDgtMTQuNzdjLTMuODEtNC44NS0xMC4zNy0yLjU1LTEwLjQ4LTIuNWMtMC44LTAuMTYtMS42Mi0wLjI1LTIuNDQtMC4yNmMtMS4zNy0wLjA2LTIuNzIsMC4zNS0zLjgyLDEuMTYgICAgICAgYzAsMC0xMS43NS00LjgyLTExLjI0LDYuMDhjMC4xMiwyLjMyLDMuMywxNy41NSw3LjEyLDEyLjk2YzEuNC0xLjY4LDIuNzQtMy4xMSwyLjc0LTMuMTFjMC42OCwwLjQ2LDEuNSwwLjY3LDIuMzIsMC41OSAgICAgICBsMC4wNy0wLjA2Yy0wLjAzLDAuMjItMC4wMywwLjQ0LDAsMC42NmMtMC45NiwxLjExLTAuNywxLjMtMi42NywxLjdjLTEuOTgsMC40LTAuODIsMS4xNC0wLjA2LDEuMzMgICAgICAgYzEuNjcsMC41NCwzLjQ5LTAuMDUsNC41Mi0xLjQ3bC0wLjA2LDAuMjNjMC4zOSwwLjMxLDAuNjYsMi4wMSwwLjYxLDMuNTZjLTAuMTMsMS4xNS0wLjA1LDIuMzEsMC4yMywzLjQzICAgICAgIGMwLjMsMC44MywwLjYxLDIuNjksMy4yLDIuMTRjMi4xNy0wLjQ3LDMuMjktMS42NywzLjQ0LTMuNjhjMC4xMS0xLjQyLDAuMzctMS4yMSwwLjM4LTIuNDhsMC4yMS0wLjYgICAgICAgYzAuMjItMS45MSwwLTIuNTYsMS4zNy0yLjI3aDAuMzJjMS4wMywwLjA0LDIuMDYtMC4xMywzLjAyLTAuNTFjMS42Mi0wLjc1LDIuNTktMi4wMSwwLjk2LTEuNjhMMjguMzIsNTAuMjN6Ii8+JiN4YTsJCQkJPC9nPiYjeGE7CQkJCTxnIGlkPSJzaGFwZTM3MTMtMjMiIHRyYW5zZm9ybT0idHJhbnNsYXRlKDE0LjcyODUsLTAuNDk1NzE4KSI+JiN4YTsJCQkJCTx0aXRsZSBpZD0idGl0bGUxMDI2NTEiPnBhdGgzNjk4PC90aXRsZT4mI3hhOwkJCQkJPGcgaWQ9InNoYWRvdzM3MTMtMjQiPiYjeGE7CQkJCQk8L2c+JiN4YTsJCQkJCTxwYXRoIGlkPSJwYXRoMTAyNjU0IiBpbmtzY2FwZTpjb25uZWN0b3ItY3VydmF0dXJlPSIwIiBzdHlsZT0iZmlsbDpub25lOyIgZD0iTTAuMSw1MS44M2MtMC4xLDMuNiwwLDcuMjIsMC4zOSw4LjEgICAgICAgYzAuMzcsMS41NCwxLjkyLDIuNDgsMy40NSwyLjExQzQuMDIsNjIuMDIsNC4xLDYyLDQuMTgsNjEuOTdjMi4xNy0wLjQ3LDIuOTYtMS4zNywzLjMtMy4zNWMwLjI1LTEuNDYsMC43NC01LjUxLDAuOC02LjM0ICAgICAgIEwwLjEsNTEuODN6Ii8+JiN4YTsJCQkJCSYjeGE7CQkJCQkJPHBhdGggaWQ9InBhdGgxMDI2NTYiIGlua3NjYXBlOmNvbm5lY3Rvci1jdXJ2YXR1cmU9IjAiIHN0eWxlPSJmaWxsOm5vbmU7c3Ryb2tlOiNGRkZGRkY7c3Ryb2tlLXdpZHRoOjAuNzY1O3N0cm9rZS1saW5lY2FwOnJvdW5kO3N0cm9rZS1saW5lam9pbjpyb3VuZDtzdHJva2UtbWl0ZXJsaW1pdDozOyIgZD0iICAgICAgIE0wLjEsNTEuODNjLTAuMSwzLjYsMCw3LjIyLDAuMzksOC4xYzAuMzcsMS41NCwxLjkyLDIuNDgsMy40NSwyLjExQzQuMDIsNjIuMDIsNC4xLDYyLDQuMTgsNjEuOTcgICAgICAgYzIuMTctMC40NywyLjk2LTEuMzcsMy4zLTMuMzVjMC4yNS0xLjQ2LDAuNzQtNS41MSwwLjgtNi4zNCIvPiYjeGE7CQkJCTwvZz4mI3hhOwkJCQk8ZyBpZD0ic2hhcGUzNzE0LTI3IiB0cmFuc2Zvcm09InRyYW5zbGF0ZSgwLC00Ljk5NTMxKSI+JiN4YTsJCQkJCTx0aXRsZSBpZD0idGl0bGUxMDI2NTkiPnBhdGgzNzAwPC90aXRsZT4mI3hhOwkJCQkJPGcgaWQ9InNoYWRvdzM3MTQtMjgiPiYjeGE7CQkJCQk8L2c+JiN4YTsJCQkJCTxwYXRoIGlkPSJwYXRoMTAyNjYyIiBpbmtzY2FwZTpjb25uZWN0b3ItY3VydmF0dXJlPSIwIiBzdHlsZT0iZmlsbDpub25lOyIgZD0iTTExLjc0LDM4LjI3YzAsMC0xMS43NC00Ljc3LTExLjE5LDYuMTEgICAgICAgYzAuMTEsMi4zNSwzLjMyLDE3LjU5LDcuMTMsMTIuOTVjMS40LTEuNjcsMi42Ni0zLDIuNjYtM0wxMS43NCwzOC4yN3oiLz4mI3hhOwkJCQkJJiN4YTsJCQkJCQk8cGF0aCBpZD0icGF0aDEwMjY2NCIgaW5rc2NhcGU6Y29ubmVjdG9yLWN1cnZhdHVyZT0iMCIgc3R5bGU9ImZpbGw6bm9uZTtzdHJva2U6I0ZGRkZGRjtzdHJva2Utd2lkdGg6MC43NjU7c3Ryb2tlLWxpbmVjYXA6cm91bmQ7c3Ryb2tlLWxpbmVqb2luOnJvdW5kO3N0cm9rZS1taXRlcmxpbWl0OjM7IiBkPSIgICAgICAgTTExLjc0LDM4LjI3YzAsMC0xMS43NC00Ljc3LTExLjE5LDYuMTFjMC4xMSwyLjM1LDMuMzIsMTcuNTksNy4xMywxMi45NWMxLjQtMS42NywyLjY2LTMsMi42Ni0zIi8+JiN4YTsJCQkJPC9nPiYjeGE7CQkJCTxnIGlkPSJzaGFwZTM3MTUtMzEiIHRyYW5zZm9ybT0idHJhbnNsYXRlKDE3LjY1NTIsLTEyLjI2OSkiPiYjeGE7CQkJCQk8dGl0bGUgaWQ9InRpdGxlMTAyNjY3Ij5wYXRoMzcwMjwvdGl0bGU+JiN4YTsJCQkJCTxnIGlkPSJzaGFkb3czNzE1LTMyIj4mI3hhOwkJCQkJPC9nPiYjeGE7CQkJCQk8cGF0aCBpZD0icGF0aDEwMjY3MCIgaW5rc2NhcGU6Y29ubmVjdG9yLWN1cnZhdHVyZT0iMCIgc3R5bGU9ImZpbGw6bm9uZTsiIGQ9Ik0wLjQxLDQ0LjdDMCw0NC44Myw2LjkzLDQyLjE3LDEwLjksNDcuMiAgICAgICBjMS4zOSwxLjc4LTAuMjIsOS4wNS00LjA4LDE0Ljc3TDAuNDEsNDQuN3oiLz4mI3hhOwkJCQkJJiN4YTsJCQkJCQk8cGF0aCBpZD0icGF0aDEwMjY3MiIgaW5rc2NhcGU6Y29ubmVjdG9yLWN1cnZhdHVyZT0iMCIgc3R5bGU9ImZpbGw6bm9uZTtzdHJva2U6I0ZGRkZGRjtzdHJva2Utd2lkdGg6MC43NjU7c3Ryb2tlLWxpbmVjYXA6cm91bmQ7c3Ryb2tlLWxpbmVqb2luOnJvdW5kO3N0cm9rZS1taXRlcmxpbWl0OjM7IiBkPSIgICAgICAgTTAuNDEsNDQuN0MwLDQ0LjgzLDYuOTMsNDIuMTcsMTAuOSw0Ny4yYzEuMzksMS43OC0wLjIyLDkuMDUtNC4wOCwxNC43NyIvPiYjeGE7CQkJCTwvZz4mI3hhOwkJCQk8ZyBpZD0ic2hhcGUzNzE2LTM1IiB0cmFuc2Zvcm09InRyYW5zbGF0ZSg4LjU0MTU5LC05LjMzMjg0KSI+JiN4YTsJCQkJCTx0aXRsZSBpZD0idGl0bGUxMDI2NzUiPnBhdGgzNzA0PC90aXRsZT4mI3hhOwkJCQkJPGcgaWQ9InNoYWRvdzM3MTYtMzYiPiYjeGE7CQkJCQk8L2c+JiN4YTsJCQkJCTxwYXRoIGlkPSJwYXRoMTAyNjc4IiBpbmtzY2FwZTpjb25uZWN0b3ItY3VydmF0dXJlPSIwIiBzdHlsZT0iZmlsbDpub25lOyIgZD0iTTE1LjkxLDU5LjAzYzAsMCwwLjI1LDEuMjQsMy45MSwwLjQ5ICAgICAgIGMxLjYtMC4zMywwLjY0LDAuOTUtMC45NSwxLjY4Yy0xLjM0LDAuNjItNC4zMiwwLjc3LTQuMzctMC4wOGMtMC4xMi0yLjIsMS41Ny0xLjU0LDEuNDUtMi4wOWMtMC4xMy0wLjU1LTAuODctMC45NS0xLjM3LTIuMiAgICAgICBjLTAuNDQtMS4wNi02LjAyLTkuMjEsMS41NC04YzAuMjgtMC4wNi0xLjk3LTcuMTktOS4wNS03LjNDMCw0MS40MSwwLjIsNTAuMjMsMC4yLDUwLjIzTDE1LjkxLDU5LjAzeiIvPiYjeGE7CQkJCQkmI3hhOwkJCQkJCTxwYXRoIGlkPSJwYXRoMTAyNjgwIiBpbmtzY2FwZTpjb25uZWN0b3ItY3VydmF0dXJlPSIwIiBzdHlsZT0iZmlsbDpub25lO3N0cm9rZTojRkZGRkZGO3N0cm9rZS13aWR0aDowLjc2NTtzdHJva2UtbGluZWNhcDpyb3VuZDtzdHJva2UtbGluZWpvaW46cm91bmQ7c3Ryb2tlLW1pdGVybGltaXQ6MzsiIGQ9IiAgICAgICBNMTUuOTEsNTkuMDNjMCwwLDAuMjUsMS4yNCwzLjkxLDAuNDljMS42LTAuMzMsMC42NCwwLjk1LTAuOTUsMS42OGMtMS4zNCwwLjYyLTQuMzIsMC43Ny00LjM3LTAuMDggICAgICAgYy0wLjEyLTIuMiwxLjU3LTEuNTQsMS40NS0yLjA5Yy0wLjEzLTAuNTUtMC44Ny0wLjk1LTEuMzctMi4yYy0wLjQ0LTEuMDYtNi4wMi05LjIxLDEuNTQtOGMwLjI4LTAuMDYtMS45Ny03LjE5LTkuMDUtNy4zICAgICAgIEMwLDQxLjQxLDAuMiw1MC4yMywwLjIsNTAuMjMiLz4mI3hhOwkJCQk8L2c+JiN4YTsJCQkJPGcgaWQ9InNoYXBlMzcxNy0zOSIgdHJhbnNmb3JtPSJ0cmFuc2xhdGUoOC4yMTc0NywtOC41MDM0NikiPiYjeGE7CQkJCQk8dGl0bGUgaWQ9InRpdGxlMTAyNjgzIj5wYXRoMzcwNjwvdGl0bGU+JiN4YTsJCQkJCTxnIGlkPSJzaGFkb3czNzE3LTQwIj4mI3hhOwkJCQkJPC9nPiYjeGE7CQkJCQkmI3hhOwkJCQkJCTxwYXRoIGlkPSJwYXRoMTAyNjg2IiBpbmtzY2FwZTpjb25uZWN0b3ItY3VydmF0dXJlPSIwIiBzdHlsZT0iZmlsbDpub25lO3N0cm9rZTojRkZGRkZGO3N0cm9rZS13aWR0aDowLjc2NTtzdHJva2UtbGluZWNhcDpyb3VuZDtzdHJva2UtbGluZWpvaW46cm91bmQ7c3Ryb2tlLW1pdGVybGltaXQ6MzsiIGQ9IiAgICAgICBNNC42NCw1OC45NGMtMC45NSwxLjEtMC42OSwxLjI5LTIuNjcsMS42OWMtMS45NywwLjQtMC44MiwxLjE1LTAuMDUsMS4zNGMxLjY2LDAuNTMsMy40OC0wLjA2LDQuNTEtMS40NyAgICAgICBjMC4zNS0wLjY2LDAuMS0xLjQ4LTAuNTYtMS44M0g1LjgyYy0wLjQxLTAuMjMtMC45My0wLjExLTEuMTksMC4yOUw0LjY0LDU4Ljk0eiIvPiYjeGE7CQkJCTwvZz4mI3hhOwkJCQk8ZyBpZD0ic2hhcGUzNzE4LTQyIiB0cmFuc2Zvcm09InRyYW5zbGF0ZSg4LjYzNjkyLC0xMS41MzUpIj4mI3hhOwkJCQkJPHRpdGxlIGlkPSJ0aXRsZTEwMjY4OSI+cGF0aDM3MDg8L3RpdGxlPiYjeGE7CQkJCQk8ZyBpZD0ic2hhZG93MzcxOC00MyI+JiN4YTsJCQkJCTwvZz4mI3hhOwkJCQkJPHBhdGggaWQ9InBhdGgxMDI2OTIiIGlua3NjYXBlOmNvbm5lY3Rvci1jdXJ2YXR1cmU9IjAiIHN0eWxlPSJmaWxsOm5vbmU7IiBkPSJNNC4xNiw2MS45N2MwLTAuOCwwLjE4LTEuNiwwLjU0LTIuMzIgICAgICAgYzAuNTEtMS4zNSwxLjY2LTIuNzEsMC43My03Yy0wLjY5LTMuMTktNS4zMy0wLjY2LTUuMzMtMC4yMmMwLjExLDEuNDIsMC4wNywyLjg0LTAuMSw0LjI1Yy0wLjQsMi4xOCwxLjA0LDQuMjYsMy4yMiw0LjY2ICAgICAgIGMwLjI5LDAuMDUsMC41OSwwLjA3LDAuODgsMC4wNkw0LjE2LDYxLjk3eiIvPiYjeGE7CQkJCQkmI3hhOwkJCQkJCTxwYXRoIGlkPSJwYXRoMTAyNjk0IiBpbmtzY2FwZTpjb25uZWN0b3ItY3VydmF0dXJlPSIwIiBzdHlsZT0iZmlsbDpub25lO3N0cm9rZTojRkZGRkZGO3N0cm9rZS13aWR0aDowLjc2NTtzdHJva2UtbGluZWNhcDpyb3VuZDtzdHJva2UtbGluZWpvaW46cm91bmQ7c3Ryb2tlLW1pdGVybGltaXQ6MzsiIGQ9IiAgICAgICBNNC4xNiw2MS45N2MwLTAuOCwwLjE4LTEuNiwwLjU0LTIuMzJjMC41MS0xLjM1LDEuNjYtMi43MSwwLjczLTdjLTAuNjktMy4xOS01LjMzLTAuNjYtNS4zMy0wLjIyICAgICAgIGMwLjExLDEuNDIsMC4wNywyLjg0LTAuMSw0LjI1Yy0wLjQsMi4xOCwxLjA0LDQuMjYsMy4yMiw0LjY2YzAuMjksMC4wNSwwLjU5LDAuMDcsMC44OCwwLjA2Ii8+JiN4YTsJCQkJPC9nPiYjeGE7CQkJCTxnIGlkPSJzaGFwZTM3MTktNDYiIHRyYW5zZm9ybT0idHJhbnNsYXRlKDExLjY4NzUsLTIwLjU0MzcpIj4mI3hhOwkJCQkJPHRpdGxlIGlkPSJ0aXRsZTEwMjY5NyI+cGF0aDM3MTA8L3RpdGxlPiYjeGE7CQkJCQk8ZyBpZD0ic2hhZG93MzcxOS00NyI+JiN4YTsJCQkJCTwvZz4mI3hhOwkJCQkJJiN4YTsJCQkJCQk8cGF0aCBpZD0icGF0aDEwMjcwMCIgaW5rc2NhcGU6Y29ubmVjdG9yLWN1cnZhdHVyZT0iMCIgc3R5bGU9ImZpbGw6I0ZGRkZGRjtzdHJva2U6I0ZGRkZGRjtzdHJva2Utd2lkdGg6MC40MTI1O3N0cm9rZS1saW5lY2FwOnNxdWFyZTtzdHJva2UtbWl0ZXJsaW1pdDozOyIgZD0iICAgICAgIE0wLDYxLjM3YzAsMC4xNSwwLjI4LDAuNTQsMC42NSwwLjZjMC4zLDAuMDQsMC41OS0wLjEyLDAuNzItMC40YzAtMC4xNS0wLjI3LTAuMzItMC42NS0wLjM2Yy0wLjM3LTAuMDUtMC43LDAtMC43MiwwLjE3VjYxLjM3ICAgICAgIHoiLz4mI3hhOwkJCQk8L2c+JiN4YTsJCQkJPGcgaWQ9InNoYXBlMzcyMC00OSIgdHJhbnNmb3JtPSJ0cmFuc2xhdGUoMjEuODk3NCwtMjAuODQ4NykiPiYjeGE7CQkJCQk8dGl0bGUgaWQ9InRpdGxlMTAyNzAzIj5wYXRoMzcxMjwvdGl0bGU+JiN4YTsJCQkJCTxnIGlkPSJzaGFkb3czNzIwLTUwIj4mI3hhOwkJCQkJPC9nPiYjeGE7CQkJCQkmI3hhOwkJCQkJCTxwYXRoIGlkPSJwYXRoMTAyNzA2IiBpbmtzY2FwZTpjb25uZWN0b3ItY3VydmF0dXJlPSIwIiBzdHlsZT0iZmlsbDojRkZGRkZGO3N0cm9rZTojRkZGRkZGO3N0cm9rZS13aWR0aDowLjIxO3N0cm9rZS1saW5lY2FwOnNxdWFyZTtzdHJva2UtbWl0ZXJsaW1pdDozOyIgZD0iICAgICAgIE0xLjM3LDYxLjM3YzAsMC4xNS0wLjI3LDAuNTQtMC42NSwwLjZjLTAuMywwLjA0LTAuNTktMC4xMi0wLjcyLTAuNGMwLTAuMTUsMC4yOC0wLjMyLDAuNjUtMC4zNiAgICAgICBDMS4wMiw2MS4xNiwxLjM1LDYxLjIxLDEuMzcsNjEuMzdMMS4zNyw2MS4zN3oiLz4mI3hhOwkJCQk8L2c+JiN4YTsJCQkJPGcgaWQ9InNoYXBlMzcyMS01MiIgdHJhbnNmb3JtPSJ0cmFuc2xhdGUoMjMuODEzNSwtMTMuMzY1MykiPiYjeGE7CQkJCQk8dGl0bGUgaWQ9InRpdGxlMTAyNzA5Ij5wYXRoMzcxNDwvdGl0bGU+JiN4YTsJCQkJCTxnIGlkPSJzaGFkb3czNzIxLTUzIj4mI3hhOwkJCQkJPC9nPiYjeGE7CQkJCQk8cGF0aCBpZD0icGF0aDEwMjcxMiIgaW5rc2NhcGU6Y29ubmVjdG9yLWN1cnZhdHVyZT0iMCIgc3R5bGU9ImZpbGw6bm9uZTsiIGQ9Ik0wLjgxLDUyLjg2YzAuMDcsMS4xNy0wLjI1LDEuOTEtMC4yOSwzLjIgICAgICAgYy0wLjA1LDEuOCwwLjg2LDMuODEtMC41Miw1LjkxTDAuODEsNTIuODZ6Ii8+JiN4YTsJCQkJCSYjeGE7CQkJCQkJPHBhdGggaWQ9InBhdGgxMDI3MTQiIGlua3NjYXBlOmNvbm5lY3Rvci1jdXJ2YXR1cmU9IjAiIHN0eWxlPSJmaWxsOm5vbmU7c3Ryb2tlOiNGRkZGRkY7c3Ryb2tlLXdpZHRoOjAuNzY1O3N0cm9rZS1saW5lY2FwOnJvdW5kO3N0cm9rZS1saW5lam9pbjpyb3VuZDtzdHJva2UtbWl0ZXJsaW1pdDozOyIgZD0iICAgICAgIE0wLjgxLDUyLjg2YzAuMDcsMS4xNy0wLjI1LDEuOTEtMC4yOSwzLjJjLTAuMDUsMS44LDAuODYsMy44MS0wLjUyLDUuOTEiLz4mI3hhOwkJCQk8L2c+JiN4YTsJCQk8L2c+JiN4YTsJCTwvZz4mI3hhOwk8L2c+JiN4YTs8L2c+JiN4YTs8L3N2Zz4=;" parent="1" vertex="1">
          <mxGeometry x="-464" y="460" width="46" height="60" as="geometry" />
        </mxCell>
        <mxCell id="ELrXMFgpvrQVn_nDHaCE-8" style="rounded=0;orthogonalLoop=1;jettySize=auto;html=1;exitX=1;exitY=0.5;exitDx=0;exitDy=0;fillColor=#dae8fc;strokeColor=#6c8ebf;" parent="1" source="ELrXMFgpvrQVn_nDHaCE-10" target="ELrXMFgpvrQVn_nDHaCE-5" edge="1">
          <mxGeometry relative="1" as="geometry">
            <mxPoint x="-592" y="165.7966101694915" as="sourcePoint" />
          </mxGeometry>
        </mxCell>
        <mxCell id="ELrXMFgpvrQVn_nDHaCE-9" value="PRODUCE&lt;br&gt;topic: inventory" style="edgeLabel;html=1;align=center;verticalAlign=middle;resizable=0;points=[];" parent="ELrXMFgpvrQVn_nDHaCE-8" vertex="1" connectable="0">
          <mxGeometry x="0.1169" relative="1" as="geometry">
            <mxPoint as="offset" />
          </mxGeometry>
        </mxCell>
        <mxCell id="ELrXMFgpvrQVn_nDHaCE-6" value="POST /inventory" style="rounded=0;orthogonalLoop=1;jettySize=auto;html=1;entryX=0.5;entryY=1;entryDx=0;entryDy=0;strokeColor=#6c8ebf;fillColor=#dae8fc;" parent="1" source="ELrXMFgpvrQVn_nDHaCE-3" target="ELrXMFgpvrQVn_nDHaCE-10" edge="1">
          <mxGeometry relative="1" as="geometry">
            <mxPoint x="-640" y="174" as="targetPoint" />
          </mxGeometry>
        </mxCell>
        <mxCell id="ELrXMFgpvrQVn_nDHaCE-3" value="HTTP Client&lt;div&gt;&lt;br&gt;&lt;/div&gt;" style="shape=umlActor;verticalLabelPosition=bottom;verticalAlign=top;html=1;outlineConnect=0;" parent="1" vertex="1">
          <mxGeometry x="-715" y="290" width="30" height="60" as="geometry" />
        </mxCell>
        <mxCell id="5-FgoGMA3iOS2s11DoEu-7" value="CONSUME&lt;br&gt;topic: postgres.public.inventories" style="rounded=0;orthogonalLoop=1;jettySize=auto;html=1;fillColor=#dae8fc;strokeColor=#6c8ebf;" parent="1" source="ELrXMFgpvrQVn_nDHaCE-5" target="5-FgoGMA3iOS2s11DoEu-5" edge="1">
          <mxGeometry relative="1" as="geometry" />
        </mxCell>
        <mxCell id="ELrXMFgpvrQVn_nDHaCE-5" value="KAFKA" style="shape=image;verticalLabelPosition=bottom;labelBackgroundColor=#ffffff;verticalAlign=top;aspect=fixed;imageAspect=0;image=data:image/svg+xml,PHN2ZyB4bWxuczpjYz0iaHR0cDovL2NyZWF0aXZlY29tbW9ucy5vcmcvbnMjIiB4bWxuczpkYz0iaHR0cDovL3B1cmwub3JnL2RjL2VsZW1lbnRzLzEuMS8iIHhtbG5zOmlua3NjYXBlPSJodHRwOi8vd3d3Lmlua3NjYXBlLm9yZy9uYW1lc3BhY2VzL2lua3NjYXBlIiB4bWxuczpyZGY9Imh0dHA6Ly93d3cudzMub3JnLzE5OTkvMDIvMjItcmRmLXN5bnRheC1ucyMiIHhtbG5zOnNvZGlwb2RpPSJodHRwOi8vc29kaXBvZGkuc291cmNlZm9yZ2UubmV0L0RURC9zb2RpcG9kaS0wLmR0ZCIgeG1sbnM6c3ZnPSJodHRwOi8vd3d3LnczLm9yZy8yMDAwL3N2ZyIgeG1sbnM9Imh0dHA6Ly93d3cudzMub3JnLzIwMDAvc3ZnIiB4bWxuczp4bGluaz0iaHR0cDovL3d3dy53My5vcmcvMTk5OS94bGluayIgdmVyc2lvbj0iMS4xIiBpZD0ic3ZnMzQ4MiIgaW5rc2NhcGU6dmVyc2lvbj0iMC45Mi4zICgyNDA1NTQ2LCAyMDE4LTAzLTExKSIgc29kaXBvZGk6ZG9jbmFtZT0ia2Fma2Euc3ZnIiB4PSIwcHgiIHk9IjBweCIgdmlld0JveD0iMCAwIDQxLjYzIDY3LjA5IiBzdHlsZT0iZW5hYmxlLWJhY2tncm91bmQ6bmV3IDAgMCA0MS42MyA2Ny4wOTsiIHhtbDpzcGFjZT0icHJlc2VydmUiPiYjeGE7PHNvZGlwb2RpOm5hbWVkdmlldyBib3JkZXJjb2xvcj0iIzY2NjY2NiIgYm9yZGVyb3BhY2l0eT0iMSIgZml0LW1hcmdpbi1ib3R0b209IjAiIGZpdC1tYXJnaW4tbGVmdD0iMCIgZml0LW1hcmdpbi1yaWdodD0iMCIgZml0LW1hcmdpbi10b3A9IjAiIGdyaWR0b2xlcmFuY2U9IjEwIiBndWlkZXRvbGVyYW5jZT0iMTAiIGlkPSJuYW1lZHZpZXczNDg0IiBpbmtzY2FwZTpjdXJyZW50LWxheWVyPSJzdmczNDgyIiBpbmtzY2FwZTpjeD0iNDIuNDYxNzk1IiBpbmtzY2FwZTpjeT0iMzMuMTMwMTg4IiBpbmtzY2FwZTpwYWdlb3BhY2l0eT0iMCIgaW5rc2NhcGU6cGFnZXNoYWRvdz0iMiIgaW5rc2NhcGU6d2luZG93LWhlaWdodD0iMTAxNyIgaW5rc2NhcGU6d2luZG93LW1heGltaXplZD0iMSIgaW5rc2NhcGU6d2luZG93LXdpZHRoPSIxOTIwIiBpbmtzY2FwZTp3aW5kb3cteD0iLTgiIGlua3NjYXBlOndpbmRvdy15PSItOCIgaW5rc2NhcGU6em9vbT0iNi43MDQwMDIiIG9iamVjdHRvbGVyYW5jZT0iMTAiIHBhZ2Vjb2xvcj0iI2ZmZmZmZiIgc2hvd2dyaWQ9ImZhbHNlIj4mI3hhOwk8L3NvZGlwb2RpOm5hbWVkdmlldz4mI3hhOzxnIGlkPSJnMzQ4MCIgdHJhbnNmb3JtPSJ0cmFuc2xhdGUoLTAuNzUsLTAuNzUpIj4mI3hhOwk8dGl0bGUgaWQ9InRpdGxlMzQ3MCI+UGFnZS0xPC90aXRsZT4mI3hhOwk8ZyBpZD0iZ3JvdXAxNjc1LTEiIHRyYW5zZm9ybT0idHJhbnNsYXRlKDAuNzUsLTAuNzUpIj4mI3hhOwkJPHRpdGxlIGlkPSJ0aXRsZTM0NzIiPkthZmthPC90aXRsZT4mI3hhOwkJPGcgaWQ9InNoYXBlMTY3Ni0yIj4mI3hhOwkJCTx0aXRsZSBpZD0idGl0bGUzNDc0Ij5TaGVldC4xNjc2PC90aXRsZT4mI3hhOwkJCTxwYXRoIGlkPSJwYXRoMzQ3NiIgaW5rc2NhcGU6Y29ubmVjdG9yLWN1cnZhdHVyZT0iMCIgc3R5bGU9ImZpbGw6IzE0Nzc5NjsiIGQ9Ik0zMi43OCwzOC40M2MtMi41MiwwLTQuOCwxLjA2LTYuNDEsMi43NiAgICAgbC00LjI2LTIuNDdjMC40MS0xLjE3LDAuNjQtMi40MywwLjY0LTMuNzNjMC0xLjM2LTAuMjQtMi42Ni0wLjY4LTMuODdsNC4yOS0yLjVjMS42MSwxLjcxLDMuODksMi43Nyw2LjQyLDIuNzcgICAgIGM0Ljg4LDAsOC44NS0zLjk3LDguODUtOC44NXMtMy45Ny04Ljg1LTguODUtOC44NXMtOC44NSwzLjk3LTguODUsOC44NWMwLDAuODksMC4xMywxLjc0LDAuMzcsMi41NWwtNC4zLDIuNSAgICAgYy0xLjY2LTEuOTQtMy45Ny0zLjMxLTYuNTgtMy43OXYtNC44M2MzLjktMC45Myw2LjgxLTQuNDQsNi44MS04LjYyYzAtNC44OC0zLjk4LTguODUtOC44Ni04Ljg1cy04Ljg1LDMuOTctOC44NSw4Ljg1ICAgICBjMCw0LjE4LDIuOTEsNy42OSw2LjgxLDguNjJ2NC44M0M0LjAzLDI0Ljc3LDAsMjkuNDEsMCwzNC45OWMwLDUuNTcsNC4wMywxMC4yMiw5LjMzLDExLjE4djQuOTVjLTMuOSwwLjkyLTYuODEsNC40My02LjgxLDguNjEgICAgIGMwLDQuODgsMy45Nyw4Ljg2LDguODUsOC44NnM4Ljg2LTMuOTgsOC44Ni04Ljg2YzAtNC4xOC0yLjkxLTcuNjktNi44MS04LjYxdi00Ljk1YzIuNjYtMC40OCw1LTEuOSw2LjY4LTMuOWw0LjIxLDIuNDUgICAgIGMtMC4yNSwwLjgxLTAuMzgsMS42Ny0wLjM4LDIuNTZjMCw0Ljg5LDMuOTcsOC44Niw4Ljg1LDguODZzOC44NS0zLjk3LDguODUtOC44NkM0MS42Myw0Mi40LDM3LjY2LDM4LjQzLDMyLjc4LDM4LjQzeiAgICAgIE0zMi43OCwxOC40OWMyLjIzLDAsNC4wNSwxLjgyLDQuMDUsNC4wNXMtMS44Miw0LjA1LTQuMDUsNC4wNXMtNC4wNS0xLjgyLTQuMDUtNC4wNVMzMC41NSwxOC40OSwzMi43OCwxOC40OXogTTcuMzMsMTAuMzUgICAgIGMwLTIuMjMsMS44MS00LjA0LDQuMDQtNC4wNHM0LjA1LDEuODEsNC4wNSw0LjA0cy0xLjgyLDQuMDUtNC4wNSw0LjA1UzcuMzMsMTIuNTgsNy4zMywxMC4zNXogTTE1LjQyLDU5LjczICAgICBjMCwyLjIzLTEuODIsNC4wNS00LjA1LDQuMDVzLTQuMDQtMS44Mi00LjA0LTQuMDVzMS44MS00LjA0LDQuMDQtNC4wNFMxNS40Miw1Ny41LDE1LjQyLDU5LjczeiBNMTEuMzcsNDEuMDcgICAgIGMtMy4zNSwwLTYuMDgtMi43My02LjA4LTYuMDhjMC0zLjM2LDIuNzMtNi4wOSw2LjA4LTYuMDljMy4zNiwwLDYuMDksMi43Myw2LjA5LDYuMDlDMTcuNDYsMzguMzQsMTQuNzMsNDEuMDcsMTEuMzcsNDEuMDd6ICAgICAgTTMyLjc4LDUxLjMzYy0yLjIzLDAtNC4wNS0xLjgxLTQuMDUtNC4wNWMwLTIuMjMsMS44Mi00LjA0LDQuMDUtNC4wNHM0LjA1LDEuODEsNC4wNSw0LjA0QzM2LjgzLDQ5LjUyLDM1LjAxLDUxLjMzLDMyLjc4LDUxLjMzICAgICB6Ii8+JiN4YTsJCTwvZz4mI3hhOwk8L2c+JiN4YTs8L2c+JiN4YTs8L3N2Zz4=;" parent="1" vertex="1">
          <mxGeometry x="-462" y="110" width="42" height="67" as="geometry" />
        </mxCell>
        <mxCell id="ELrXMFgpvrQVn_nDHaCE-10" value="API" style="shape=image;verticalLabelPosition=bottom;labelBackgroundColor=#ffffff;verticalAlign=top;aspect=fixed;imageAspect=0;image=data:image/svg+xml,PHN2ZyB4bWxuczpkYz0iaHR0cDovL3B1cmwub3JnL2RjL2VsZW1lbnRzLzEuMS8iIHhtbG5zOmNjPSJodHRwOi8vY3JlYXRpdmVjb21tb25zLm9yZy9ucyMiIHhtbG5zOnJkZj0iaHR0cDovL3d3dy53My5vcmcvMTk5OS8wMi8yMi1yZGYtc3ludGF4LW5zIyIgeG1sbnM6c3ZnPSJodHRwOi8vd3d3LnczLm9yZy8yMDAwL3N2ZyIgeG1sbnM9Imh0dHA6Ly93d3cudzMub3JnLzIwMDAvc3ZnIiB4bWxuczpzb2RpcG9kaT0iaHR0cDovL3NvZGlwb2RpLnNvdXJjZWZvcmdlLm5ldC9EVEQvc29kaXBvZGktMC5kdGQiIHhtbG5zOmlua3NjYXBlPSJodHRwOi8vd3d3Lmlua3NjYXBlLm9yZy9uYW1lc3BhY2VzL2lua3NjYXBlIiB2ZXJzaW9uPSIxLjEiIGlkPSJzdmcxODUzMCIgaW5rc2NhcGU6dmVyc2lvbj0iMC45Mi4zICgyNDA1NTQ2LCAyMDE4LTAzLTExKSIgc29kaXBvZGk6ZG9jbmFtZT0ibm9kZWpzLnN2ZyIgeD0iMHB4IiB5PSIwcHgiIHZpZXdCb3g9IjAgMCA4MDcuMTIgMjE3Ljk2IiBzdHlsZT0iZW5hYmxlLWJhY2tncm91bmQ6bmV3IDAgMCA4MDcuMTIgMjE3Ljk2OyIgeG1sOnNwYWNlPSJwcmVzZXJ2ZSI+PG1ldGFkYXRhIGlkPSJtZXRhZGF0YTk3ODEiPjxyZGY6UkRGPjxjYzpXb3JrIHJkZjphYm91dD0iIj48ZGM6Zm9ybWF0PmltYWdlL3N2Zyt4bWw8L2RjOmZvcm1hdD48ZGM6dHlwZSByZGY6cmVzb3VyY2U9Imh0dHA6Ly9wdXJsLm9yZy9kYy9kY21pdHlwZS9TdGlsbEltYWdlIi8+PGRjOnRpdGxlLz48L2NjOldvcms+PC9yZGY6UkRGPjwvbWV0YWRhdGE+PGRlZnMgaWQ9ImRlZnM5Nzc5Ii8+JiN4YTs8ZmlsdGVyIGlkPSJmaWx0ZXJfMiI+JiN4YTsJPGZlR2F1c3NpYW5CbHVyIGlkPSJmZUdhdXNzaWFuQmx1cjE4NDU1IiBzdGREZXZpYXRpb249IjIiLz4mI3hhOzwvZmlsdGVyPiYjeGE7PHNvZGlwb2RpOm5hbWVkdmlldyBib3JkZXJjb2xvcj0iIzY2NjY2NiIgYm9yZGVyb3BhY2l0eT0iMSIgZml0LW1hcmdpbi1ib3R0b209IjAiIGZpdC1tYXJnaW4tbGVmdD0iMCIgZml0LW1hcmdpbi1yaWdodD0iMCIgZml0LW1hcmdpbi10b3A9IjAiIGdyaWR0b2xlcmFuY2U9IjEwIiBndWlkZXRvbGVyYW5jZT0iMTAiIGlkPSJuYW1lZHZpZXcxODUzMiIgaW5rc2NhcGU6Y3VycmVudC1sYXllcj0ic3ZnMTg1MzAiIGlua3NjYXBlOmN4PSI0MjMuMDEzNDgiIGlua3NjYXBlOmN5PSI0My43NzI4MjEiIGlua3NjYXBlOnBhZ2VvcGFjaXR5PSIwIiBpbmtzY2FwZTpwYWdlc2hhZG93PSIyIiBpbmtzY2FwZTp3aW5kb3ctaGVpZ2h0PSIxMDE3IiBpbmtzY2FwZTp3aW5kb3ctbWF4aW1pemVkPSIxIiBpbmtzY2FwZTp3aW5kb3ctd2lkdGg9IjE5MjAiIGlua3NjYXBlOndpbmRvdy14PSItOCIgaW5rc2NhcGU6d2luZG93LXk9Ii04IiBpbmtzY2FwZTp6b29tPSIxLjY0MzY1OTEiIG9iamVjdHRvbGVyYW5jZT0iMTAiIHBhZ2Vjb2xvcj0iI2ZmZmZmZiIgc2hvd2dyaWQ9ImZhbHNlIj4mI3hhOwk8L3NvZGlwb2RpOm5hbWVkdmlldz4mI3hhOyYjeGE7PHBhdGggaWQ9InBhdGgxODQ2OCIgaW5rc2NhcGU6Y29ubmVjdG9yLWN1cnZhdHVyZT0iMCIgc3R5bGU9ImZpbGw6IzNGNTc2NTsiIGQ9Ik0xMjEuNDQsMTE1LjgzYzAtMi4zNi0xLjIzLTQuNTItMy4yNy01LjY5ICBMNjMuOTksNzguOTZjLTAuOTEtMC41My0xLjk0LTAuODItMi45OC0wLjg2Yy0wLjA5LDAtMC40OCwwLTAuNTYsMGMtMS4wNCwwLjA0LTIuMDYsMC4zMy0yLjk5LDAuODZMMy4yOCwxMTAuMTQgIEMxLjI2LDExMS4zMSwwLDExMy40NywwLDExNS44M2wwLjEyLDgzLjk2YzAsMS4xNywwLjYxLDIuMjYsMS42MywyLjgzYzEuMDEsMC42LDIuMjUsMC42LDMuMjUsMGwzMi4yMS0xOC40NCAgYzIuMDMtMS4yMSwzLjI3LTMuMzQsMy4yNy01LjY4di0zOS4yMmMwLTIuMzUsMS4yNC00LjUxLDMuMjYtNS42N2wxMy43Mi03LjljMS4wMi0wLjU5LDIuMTQtMC44OCwzLjI4LTAuODggIGMxLjExLDAsMi4yNiwwLjI5LDMuMjUsMC44OGwxMy43MSw3LjljMi4wMywxLjE2LDMuMjcsMy4zMiwzLjI3LDUuNjd2MzkuMjJjMCwyLjM0LDEuMjYsNC40OCwzLjI4LDUuNjhsMzIuMTksMTguNDQgIGMxLjAxLDAuNiwyLjI3LDAuNiwzLjI3LDBjMS0wLjU3LDEuNjMtMS42NiwxLjYzLTIuODNMMTIxLjQ0LDExNS44M3oiLz4mI3hhOyYjeGE7PHBhdGggaWQ9InBhdGgxODQ3NiIgaW5rc2NhcGU6Y29ubmVjdG9yLWN1cnZhdHVyZT0iMCIgc3R5bGU9ImZpbGw6IzNGNTc2NTsiIGQ9Ik00MDUuNzMsMTU5LjU1YzAsMC41OC0wLjMxLDEuMTItMC44MiwxLjQxICBsLTE4LjYxLDEwLjczYy0wLjUsMC4yOS0xLjEzLDAuMjktMS42MywwbC0xOC42MS0xMC43M2MtMC41MS0wLjI5LTAuODItMC44My0wLjgyLTEuNDF2LTIxLjQ5YzAtMC41OSwwLjMxLTEuMTMsMC44Mi0xLjQyICBsMTguNi0xMC43NWMwLjUxLTAuMjksMS4xNC0wLjI5LDEuNjQsMGwxOC42MSwxMC43NWMwLjUxLDAuMjksMC44MiwwLjgzLDAuODIsMS40Mkw0MDUuNzMsMTU5LjU1eiBNNDEwLjc2LDAuNDEgIGMtMS4wMi0wLjU2LTIuMjYtMC41NS0zLjI1LDAuMDRjLTEsMC41OC0xLjYyLDEuNjYtMS42MiwyLjgydjgzLjE1YzAsMC44MS0wLjQ0LDEuNTctMS4xNCwxLjk4Yy0wLjcxLDAuNDEtMS41OSwwLjQxLTIuMjksMCAgbC0xMy41Ny03LjgyYy0yLjAzLTEuMTYtNC41Mi0xLjE2LTYuNTQsMGwtNTQuMjEsMzEuMjljLTIuMDIsMS4xNy0zLjI3LDMuMzMtMy4yNyw1LjY2djYyLjU4YzAsMi4zNCwxLjI1LDQuNSwzLjI3LDUuNjdsNTQuMiwzMS4zICBjMi4wMywxLjE3LDQuNTIsMS4xNyw2LjU1LDBsNTQuMjEtMzEuM2MyLjAyLTEuMTcsMy4yNy0zLjMzLDMuMjctNS42N1YyNC4xM2MwLTIuMzgtMS4yOS00LjU2LTMuMzYtNS43Mkw0MTAuNzYsMC40MXoiLz4mI3hhOyYjeGE7PHBhdGggaWQ9InBhdGgxODQ4NCIgaW5rc2NhcGU6Y29ubmVjdG9yLWN1cnZhdHVyZT0iMCIgc3R5bGU9ImZpbGw6IzNmNTc2NSIgZD0ibSA2MDQuNjcsMTM3LjUgYyAyLjAyLC0xLjE3IDMuMjYsLTMuMzIgMy4yNiwtNS42NiB2IC0xNS4xNiBjIDAsLTIuMzMgLTEuMjQsLTQuNDkgLTMuMjYsLTUuNjYgTCA1NTAuODIsNzkuNzUgYyAtMi4wMywtMS4xOCAtNC41MywtMS4xOCAtNi41NywtMC4wMSBsIC01NC4xOCwzMS4yOCBjIC0yLjAyLDEuMTcgLTMuMjcsMy4zMyAtMy4yNyw1LjY3IHYgNjIuNTYgYyAwLDIuMzUgMS4yNiw0LjUyIDMuMzEsNS42OCBsIDUzLjg0LDMwLjY5IGMgMS45OSwxLjEzIDQuNDIsMS4xNCA2LjQyLDAuMDMgbCAzMi41NywtMTguMSBjIDEuMDMsLTAuNTggMS42OCwtMS42NiAxLjY4LC0yLjg0IDAuMDEsLTEuMTggLTAuNjIsLTIuMjcgLTEuNjQsLTIuODYgbCAtNTQuNTMsLTMxLjI5IGMgLTEuMDIsLTAuNTkgLTEuNjQsLTEuNjcgLTEuNjQsLTIuODUgdiAtMTkuNiBjIDAsLTEuMTcgMC42MiwtMi4yNSAxLjY0LC0yLjgzIGwgMTYuOTcsLTkuNzkgYyAxLjAxLC0wLjU4IDIuMjUsLTAuNTggMy4yNiwwIGwgMTYuOTgsOS43OSBjIDEuMDIsMC41OCAxLjY0LDEuNjYgMS42NCwyLjgzIHYgMTUuNDIgYyAwLDEuMTggMC42MywyLjI2IDEuNjQsMi44NCAxLjAyLDAuNTkgMi4yNiwwLjU4IDMuMjgsMCB6Ii8+JiN4YTsmI3hhOzxwYXRoIGlkPSJwYXRoMTg0OTIiIGlua3NjYXBlOmNvbm5lY3Rvci1jdXJ2YXR1cmU9IjAiIHN0eWxlPSJmaWxsOiM3OEI3NDM7IiBkPSJNMjIwLjAxLDc5LjQxYzIuMDItMS4xNyw0LjUyLTEuMTcsNi41NCwwICBsNTQuMiwzMS4yN2MyLjAyLDEuMTcsMy4yNywzLjMzLDMuMjcsNS42N3Y2Mi42YzAsMi4zNC0xLjI1LDQuNS0zLjI3LDUuNjdsLTU0LjIsMzEuM2MtMi4wMiwxLjE3LTQuNTIsMS4xNy02LjU1LDBsLTU0LjE4LTMxLjMgIGMtMi4wMi0xLjE3LTMuMjctMy4zMy0zLjI3LTUuNjd2LTYyLjZjMC0yLjM0LDEuMjUtNC41LDMuMjgtNS42N0wyMjAuMDEsNzkuNDF6Ii8+JiN4YTsmI3hhOzxwYXRoIGlkPSJwYXRoMTg1MDAiIGlua3NjYXBlOmNvbm5lY3Rvci1jdXJ2YXR1cmU9IjAiIHN0eWxlPSJmaWxsOiM3OEI3NDM7IiBkPSJNNzA5LjksMjE2LjgxYy0xLjg3LDAtMy43Mi0wLjQ5LTUuMzYtMS40MyAgbC0xNy4wNi0xMC4xYy0yLjU1LTEuNDItMS4zLTEuOTMtMC40Ny0yLjIyYzMuNDEtMS4xOCw0LjA5LTEuNDYsNy43Mi0zLjUxYzAuMzgtMC4yMSwwLjg4LTAuMTQsMS4yNywwLjA5bDEzLjExLDcuNzkgIGMwLjQ3LDAuMjYsMS4xNCwwLjI2LDEuNTgsMGw1MS4xLTI5LjVjMC40OC0wLjI3LDAuNzgtMC44MiwwLjc4LTEuMzh2LTU4Ljk4YzAtMC41Ny0wLjMtMS4xMS0wLjc5LTEuNDFMNzEwLjcsODYuNjkgIGMtMC40Ny0wLjI4LTEuMS0wLjI4LTEuNTgsMGwtNTEuMDcsMjkuNDhjLTAuNDksMC4yOS0wLjgxLDAuODQtMC44MSwxLjR2NTguOThjMCwwLjU2LDAuMzIsMS4wOSwwLjgxLDEuMzZsMTQsOC4wOSAgYzcuNTksMy44LDEyLjI1LTAuNjcsMTIuMjUtNS4xN1YxMjIuNmMwLTAuODIsMC42Ni0xLjQ3LDEuNDgtMS40N2g2LjQ4YzAuODEsMCwxLjQ4LDAuNjUsMS40OCwxLjQ3djU4LjIzICBjMCwxMC4xNC01LjUyLDE1Ljk2LTE1LjEzLDE1Ljk2Yy0yLjk1LDAtNS4yOCwwLTExLjc3LTMuMmwtMTMuNC03LjcyYy0zLjMxLTEuOTEtNS4zNi01LjQ5LTUuMzYtOS4zMnYtNTguOTggIGMwLTMuODMsMi4wNS03LjQxLDUuMzYtOS4zMWw1MS4xLTI5LjUzYzMuMjQtMS44Myw3LjUzLTEuODMsMTAuNzQsMGw1MS4xLDI5LjUzYzMuMzEsMS45MSw1LjM3LDUuNDgsNS4zNyw5LjMxdjU4Ljk4ICBjMCwzLjgzLTIuMDYsNy4zOS01LjM3LDkuMzJsLTUxLjEsMjkuNTFDNzEzLjY1LDIxNi4zMiw3MTEuOCwyMTYuODEsNzA5LjksMjE2LjgxTDcwOS45LDIxNi44MXoiLz4mI3hhOyYjeGE7PHBhdGggaWQ9InBhdGgxODUwOCIgaW5rc2NhcGU6Y29ubmVjdG9yLWN1cnZhdHVyZT0iMCIgc3R5bGU9ImZpbGw6Izc4Qjc0MzsiIGQ9Ik03MjUuNjksMTc2LjE4Yy0yMi4zNywwLTI3LjA1LTEwLjI3LTI3LjA1LTE4Ljg4ICBjMC0wLjgyLDAuNjYtMS40NywxLjQ4LTEuNDdoNi42MWMwLjc0LDAsMS4zNSwwLjUzLDEuNDcsMS4yNWMwLjk5LDYuNzMsMy45NywxMC4xMiwxNy40OSwxMC4xMmMxMC43NiwwLDE1LjM1LTIuNDMsMTUuMzUtOC4xNSAgYzAtMy4yOS0xLjMtNS43My0xOC4wMy03LjM3Yy0xMy45OC0xLjM4LTIyLjYzLTQuNDctMjIuNjMtMTUuNjZjMC0xMC4zMSw4LjY5LTE2LjQ2LDIzLjI2LTE2LjQ2YzE2LjM3LDAsMjQuNDcsNS42OCwyNS41LDE3Ljg4ICBjMC4wNCwwLjQxLTAuMTEsMC44Mi0wLjM5LDEuMTNjLTAuMjgsMC4zLTAuNjcsMC40Ny0xLjA4LDAuNDdoLTYuNjRjLTAuNjgsMC0xLjI5LTAuNDktMS40My0xLjE1Yy0xLjU5LTcuMDgtNS40Ni05LjM0LTE1Ljk2LTkuMzQgIGMtMTEuNzUsMC0xMy4xMiw0LjA5LTEzLjEyLDcuMTZjMCwzLjcyLDEuNjEsNC44LDE3LjQ4LDYuOWMxNS43MSwyLjA4LDIzLjE3LDUuMDIsMjMuMTcsMTYuMDUgIEM3NTEuMTcsMTY5LjgsNzQxLjg5LDE3Ni4xOCw3MjUuNjksMTc2LjE4TDcyNS42OSwxNzYuMTh6Ii8+JiN4YTsmI3hhOzxwYXRoIGlkPSJwYXRoMTg1MTYiIGlua3NjYXBlOmNvbm5lY3Rvci1jdXJ2YXR1cmU9IjAiIHN0eWxlPSJmaWxsOiM3OEI3NDM7IiBkPSJNNTEwLjc0LDEzNC41N2MwLjM5LTAuMjMsMC44Ny0wLjIzLDEuMjYsMGwxMC40LDYgIGMwLjM5LDAuMjMsMC42MiwwLjY0LDAuNjIsMS4wOXYxMi4wMWMwLDAuNDQtMC4yMywwLjg2LTAuNjIsMS4wOGwtMTAuNCw2Yy0wLjM5LDAuMjMtMC44NywwLjIzLTEuMjYsMGwtMTAuMzktNiAgYy0wLjM5LTAuMjItMC42My0wLjY0LTAuNjMtMS4wOHYtMTIuMDFjMC0wLjQ1LDAuMjQtMC44NiwwLjYzLTEuMDlMNTEwLjc0LDEzNC41N3oiLz4mI3hhOyYjeGE7PHBhdGggaWQ9InBhdGgxODUyNCIgaW5rc2NhcGU6Y29ubmVjdG9yLWN1cnZhdHVyZT0iMCIgc3R5bGU9ImZpbGw6Izc4Qjc0MzsiIGQ9Ik03OTUuNjUsOTQuMDNoMS43MmMxLjQxLDAsMS42Ny0wLjk5LDEuNjctMS41NiAgYzAtMS41Mi0xLjA0LTEuNTItMS42MS0xLjUyaC0xLjc4Vjk0LjAzeiBNNzkzLjU3LDg5LjE4aDMuOGMxLjMxLDAsMy44NiwwLDMuODYsMi45M2MwLDIuMDItMS4zLDIuNDQtMi4wOSwyLjcgIGMxLjUyLDAuMTEsMS42MiwxLjEsMS44MywyLjVjMC4xMSwwLjg5LDAuMjYsMi40LDAuNTcsMi45MmgtMi4zNGMtMC4wNi0wLjUyLTAuNDItMy4zMy0wLjQyLTMuNDljLTAuMTUtMC42Mi0wLjM3LTAuOTQtMS4xNC0wLjk0ICBoLTEuOTN2NC40M2gtMi4xNEw3OTMuNTcsODkuMTh6IE03ODkuMDEsOTQuNjhjMCw0LjU5LDMuNyw4LjI5LDguMjMsOC4yOWM0LjU5LDAsOC4yOS0zLjc4LDguMjktOC4yOWMwLTQuNTgtMy43NS04LjIzLTguMjktOC4yMyAgQzc5Mi43Niw4Ni40NSw3ODkuMDEsOTAuMDQsNzg5LjAxLDk0LjY4eiBNODA3LjEyLDk0LjcxYzAsNS40Mi00LjQzLDkuODUtOS44NSw5Ljg1Yy01LjM3LDAtOS44NS00LjM4LTkuODUtOS44NSAgYzAtNS41OCw0LjU5LTkuODUsOS44NS05Ljg1QzgwMi41OCw4NC44Niw4MDcuMTIsODkuMTMsODA3LjEyLDk0LjcxeiIvPiYjeGE7PC9zdmc+;" parent="1" vertex="1">
          <mxGeometry x="-770" y="124.64999999999995" width="140" height="37.69" as="geometry" />
        </mxCell>
        <mxCell id="ELrXMFgpvrQVn_nDHaCE-14" value="CONSUME&lt;br&gt;topic: inventory" style="rounded=0;orthogonalLoop=1;jettySize=auto;html=1;fillColor=#dae8fc;strokeColor=#6c8ebf;" parent="1" source="ELrXMFgpvrQVn_nDHaCE-5" target="ELrXMFgpvrQVn_nDHaCE-13" edge="1">
          <mxGeometry relative="1" as="geometry" />
        </mxCell>
        <mxCell id="5-FgoGMA3iOS2s11DoEu-2" value="INSERT INTO inventories" style="edgeStyle=orthogonalEdgeStyle;rounded=0;orthogonalLoop=1;jettySize=auto;html=1;fillColor=#dae8fc;strokeColor=#6c8ebf;" parent="1" source="ELrXMFgpvrQVn_nDHaCE-13" target="ELrXMFgpvrQVn_nDHaCE-1" edge="1">
          <mxGeometry x="0.2442" y="1" relative="1" as="geometry">
            <mxPoint as="offset" />
          </mxGeometry>
        </mxCell>
        <mxCell id="ELrXMFgpvrQVn_nDHaCE-13" value="INVENTORY" style="shape=image;verticalLabelPosition=bottom;labelBackgroundColor=#ffffff;verticalAlign=top;aspect=fixed;imageAspect=0;image=data:image/svg+xml,PHN2ZyB4bWxuczpkYz0iaHR0cDovL3B1cmwub3JnL2RjL2VsZW1lbnRzLzEuMS8iIHhtbG5zOmNjPSJodHRwOi8vY3JlYXRpdmVjb21tb25zLm9yZy9ucyMiIHhtbG5zOnJkZj0iaHR0cDovL3d3dy53My5vcmcvMTk5OS8wMi8yMi1yZGYtc3ludGF4LW5zIyIgeG1sbnM6c3ZnPSJodHRwOi8vd3d3LnczLm9yZy8yMDAwL3N2ZyIgeG1sbnM9Imh0dHA6Ly93d3cudzMub3JnLzIwMDAvc3ZnIiB4bWxuczpzb2RpcG9kaT0iaHR0cDovL3NvZGlwb2RpLnNvdXJjZWZvcmdlLm5ldC9EVEQvc29kaXBvZGktMC5kdGQiIHhtbG5zOmlua3NjYXBlPSJodHRwOi8vd3d3Lmlua3NjYXBlLm9yZy9uYW1lc3BhY2VzL2lua3NjYXBlIiB2ZXJzaW9uPSIxLjEiIGlkPSJzdmcxODUzMCIgaW5rc2NhcGU6dmVyc2lvbj0iMC45Mi4zICgyNDA1NTQ2LCAyMDE4LTAzLTExKSIgc29kaXBvZGk6ZG9jbmFtZT0ibm9kZWpzLnN2ZyIgeD0iMHB4IiB5PSIwcHgiIHZpZXdCb3g9IjAgMCA4MDcuMTIgMjE3Ljk2IiBzdHlsZT0iZW5hYmxlLWJhY2tncm91bmQ6bmV3IDAgMCA4MDcuMTIgMjE3Ljk2OyIgeG1sOnNwYWNlPSJwcmVzZXJ2ZSI+PG1ldGFkYXRhIGlkPSJtZXRhZGF0YTk3ODEiPjxyZGY6UkRGPjxjYzpXb3JrIHJkZjphYm91dD0iIj48ZGM6Zm9ybWF0PmltYWdlL3N2Zyt4bWw8L2RjOmZvcm1hdD48ZGM6dHlwZSByZGY6cmVzb3VyY2U9Imh0dHA6Ly9wdXJsLm9yZy9kYy9kY21pdHlwZS9TdGlsbEltYWdlIi8+PGRjOnRpdGxlLz48L2NjOldvcms+PC9yZGY6UkRGPjwvbWV0YWRhdGE+PGRlZnMgaWQ9ImRlZnM5Nzc5Ii8+JiN4YTs8ZmlsdGVyIGlkPSJmaWx0ZXJfMiI+JiN4YTsJPGZlR2F1c3NpYW5CbHVyIGlkPSJmZUdhdXNzaWFuQmx1cjE4NDU1IiBzdGREZXZpYXRpb249IjIiLz4mI3hhOzwvZmlsdGVyPiYjeGE7PHNvZGlwb2RpOm5hbWVkdmlldyBib3JkZXJjb2xvcj0iIzY2NjY2NiIgYm9yZGVyb3BhY2l0eT0iMSIgZml0LW1hcmdpbi1ib3R0b209IjAiIGZpdC1tYXJnaW4tbGVmdD0iMCIgZml0LW1hcmdpbi1yaWdodD0iMCIgZml0LW1hcmdpbi10b3A9IjAiIGdyaWR0b2xlcmFuY2U9IjEwIiBndWlkZXRvbGVyYW5jZT0iMTAiIGlkPSJuYW1lZHZpZXcxODUzMiIgaW5rc2NhcGU6Y3VycmVudC1sYXllcj0ic3ZnMTg1MzAiIGlua3NjYXBlOmN4PSI0MjMuMDEzNDgiIGlua3NjYXBlOmN5PSI0My43NzI4MjEiIGlua3NjYXBlOnBhZ2VvcGFjaXR5PSIwIiBpbmtzY2FwZTpwYWdlc2hhZG93PSIyIiBpbmtzY2FwZTp3aW5kb3ctaGVpZ2h0PSIxMDE3IiBpbmtzY2FwZTp3aW5kb3ctbWF4aW1pemVkPSIxIiBpbmtzY2FwZTp3aW5kb3ctd2lkdGg9IjE5MjAiIGlua3NjYXBlOndpbmRvdy14PSItOCIgaW5rc2NhcGU6d2luZG93LXk9Ii04IiBpbmtzY2FwZTp6b29tPSIxLjY0MzY1OTEiIG9iamVjdHRvbGVyYW5jZT0iMTAiIHBhZ2Vjb2xvcj0iI2ZmZmZmZiIgc2hvd2dyaWQ9ImZhbHNlIj4mI3hhOwk8L3NvZGlwb2RpOm5hbWVkdmlldz4mI3hhOyYjeGE7PHBhdGggaWQ9InBhdGgxODQ2OCIgaW5rc2NhcGU6Y29ubmVjdG9yLWN1cnZhdHVyZT0iMCIgc3R5bGU9ImZpbGw6IzNGNTc2NTsiIGQ9Ik0xMjEuNDQsMTE1LjgzYzAtMi4zNi0xLjIzLTQuNTItMy4yNy01LjY5ICBMNjMuOTksNzguOTZjLTAuOTEtMC41My0xLjk0LTAuODItMi45OC0wLjg2Yy0wLjA5LDAtMC40OCwwLTAuNTYsMGMtMS4wNCwwLjA0LTIuMDYsMC4zMy0yLjk5LDAuODZMMy4yOCwxMTAuMTQgIEMxLjI2LDExMS4zMSwwLDExMy40NywwLDExNS44M2wwLjEyLDgzLjk2YzAsMS4xNywwLjYxLDIuMjYsMS42MywyLjgzYzEuMDEsMC42LDIuMjUsMC42LDMuMjUsMGwzMi4yMS0xOC40NCAgYzIuMDMtMS4yMSwzLjI3LTMuMzQsMy4yNy01LjY4di0zOS4yMmMwLTIuMzUsMS4yNC00LjUxLDMuMjYtNS42N2wxMy43Mi03LjljMS4wMi0wLjU5LDIuMTQtMC44OCwzLjI4LTAuODggIGMxLjExLDAsMi4yNiwwLjI5LDMuMjUsMC44OGwxMy43MSw3LjljMi4wMywxLjE2LDMuMjcsMy4zMiwzLjI3LDUuNjd2MzkuMjJjMCwyLjM0LDEuMjYsNC40OCwzLjI4LDUuNjhsMzIuMTksMTguNDQgIGMxLjAxLDAuNiwyLjI3LDAuNiwzLjI3LDBjMS0wLjU3LDEuNjMtMS42NiwxLjYzLTIuODNMMTIxLjQ0LDExNS44M3oiLz4mI3hhOyYjeGE7PHBhdGggaWQ9InBhdGgxODQ3NiIgaW5rc2NhcGU6Y29ubmVjdG9yLWN1cnZhdHVyZT0iMCIgc3R5bGU9ImZpbGw6IzNGNTc2NTsiIGQ9Ik00MDUuNzMsMTU5LjU1YzAsMC41OC0wLjMxLDEuMTItMC44MiwxLjQxICBsLTE4LjYxLDEwLjczYy0wLjUsMC4yOS0xLjEzLDAuMjktMS42MywwbC0xOC42MS0xMC43M2MtMC41MS0wLjI5LTAuODItMC44My0wLjgyLTEuNDF2LTIxLjQ5YzAtMC41OSwwLjMxLTEuMTMsMC44Mi0xLjQyICBsMTguNi0xMC43NWMwLjUxLTAuMjksMS4xNC0wLjI5LDEuNjQsMGwxOC42MSwxMC43NWMwLjUxLDAuMjksMC44MiwwLjgzLDAuODIsMS40Mkw0MDUuNzMsMTU5LjU1eiBNNDEwLjc2LDAuNDEgIGMtMS4wMi0wLjU2LTIuMjYtMC41NS0zLjI1LDAuMDRjLTEsMC41OC0xLjYyLDEuNjYtMS42MiwyLjgydjgzLjE1YzAsMC44MS0wLjQ0LDEuNTctMS4xNCwxLjk4Yy0wLjcxLDAuNDEtMS41OSwwLjQxLTIuMjksMCAgbC0xMy41Ny03LjgyYy0yLjAzLTEuMTYtNC41Mi0xLjE2LTYuNTQsMGwtNTQuMjEsMzEuMjljLTIuMDIsMS4xNy0zLjI3LDMuMzMtMy4yNyw1LjY2djYyLjU4YzAsMi4zNCwxLjI1LDQuNSwzLjI3LDUuNjdsNTQuMiwzMS4zICBjMi4wMywxLjE3LDQuNTIsMS4xNyw2LjU1LDBsNTQuMjEtMzEuM2MyLjAyLTEuMTcsMy4yNy0zLjMzLDMuMjctNS42N1YyNC4xM2MwLTIuMzgtMS4yOS00LjU2LTMuMzYtNS43Mkw0MTAuNzYsMC40MXoiLz4mI3hhOyYjeGE7PHBhdGggaWQ9InBhdGgxODQ4NCIgaW5rc2NhcGU6Y29ubmVjdG9yLWN1cnZhdHVyZT0iMCIgc3R5bGU9ImZpbGw6IzNmNTc2NSIgZD0ibSA2MDQuNjcsMTM3LjUgYyAyLjAyLC0xLjE3IDMuMjYsLTMuMzIgMy4yNiwtNS42NiB2IC0xNS4xNiBjIDAsLTIuMzMgLTEuMjQsLTQuNDkgLTMuMjYsLTUuNjYgTCA1NTAuODIsNzkuNzUgYyAtMi4wMywtMS4xOCAtNC41MywtMS4xOCAtNi41NywtMC4wMSBsIC01NC4xOCwzMS4yOCBjIC0yLjAyLDEuMTcgLTMuMjcsMy4zMyAtMy4yNyw1LjY3IHYgNjIuNTYgYyAwLDIuMzUgMS4yNiw0LjUyIDMuMzEsNS42OCBsIDUzLjg0LDMwLjY5IGMgMS45OSwxLjEzIDQuNDIsMS4xNCA2LjQyLDAuMDMgbCAzMi41NywtMTguMSBjIDEuMDMsLTAuNTggMS42OCwtMS42NiAxLjY4LC0yLjg0IDAuMDEsLTEuMTggLTAuNjIsLTIuMjcgLTEuNjQsLTIuODYgbCAtNTQuNTMsLTMxLjI5IGMgLTEuMDIsLTAuNTkgLTEuNjQsLTEuNjcgLTEuNjQsLTIuODUgdiAtMTkuNiBjIDAsLTEuMTcgMC42MiwtMi4yNSAxLjY0LC0yLjgzIGwgMTYuOTcsLTkuNzkgYyAxLjAxLC0wLjU4IDIuMjUsLTAuNTggMy4yNiwwIGwgMTYuOTgsOS43OSBjIDEuMDIsMC41OCAxLjY0LDEuNjYgMS42NCwyLjgzIHYgMTUuNDIgYyAwLDEuMTggMC42MywyLjI2IDEuNjQsMi44NCAxLjAyLDAuNTkgMi4yNiwwLjU4IDMuMjgsMCB6Ii8+JiN4YTsmI3hhOzxwYXRoIGlkPSJwYXRoMTg0OTIiIGlua3NjYXBlOmNvbm5lY3Rvci1jdXJ2YXR1cmU9IjAiIHN0eWxlPSJmaWxsOiM3OEI3NDM7IiBkPSJNMjIwLjAxLDc5LjQxYzIuMDItMS4xNyw0LjUyLTEuMTcsNi41NCwwICBsNTQuMiwzMS4yN2MyLjAyLDEuMTcsMy4yNywzLjMzLDMuMjcsNS42N3Y2Mi42YzAsMi4zNC0xLjI1LDQuNS0zLjI3LDUuNjdsLTU0LjIsMzEuM2MtMi4wMiwxLjE3LTQuNTIsMS4xNy02LjU1LDBsLTU0LjE4LTMxLjMgIGMtMi4wMi0xLjE3LTMuMjctMy4zMy0zLjI3LTUuNjd2LTYyLjZjMC0yLjM0LDEuMjUtNC41LDMuMjgtNS42N0wyMjAuMDEsNzkuNDF6Ii8+JiN4YTsmI3hhOzxwYXRoIGlkPSJwYXRoMTg1MDAiIGlua3NjYXBlOmNvbm5lY3Rvci1jdXJ2YXR1cmU9IjAiIHN0eWxlPSJmaWxsOiM3OEI3NDM7IiBkPSJNNzA5LjksMjE2LjgxYy0xLjg3LDAtMy43Mi0wLjQ5LTUuMzYtMS40MyAgbC0xNy4wNi0xMC4xYy0yLjU1LTEuNDItMS4zLTEuOTMtMC40Ny0yLjIyYzMuNDEtMS4xOCw0LjA5LTEuNDYsNy43Mi0zLjUxYzAuMzgtMC4yMSwwLjg4LTAuMTQsMS4yNywwLjA5bDEzLjExLDcuNzkgIGMwLjQ3LDAuMjYsMS4xNCwwLjI2LDEuNTgsMGw1MS4xLTI5LjVjMC40OC0wLjI3LDAuNzgtMC44MiwwLjc4LTEuMzh2LTU4Ljk4YzAtMC41Ny0wLjMtMS4xMS0wLjc5LTEuNDFMNzEwLjcsODYuNjkgIGMtMC40Ny0wLjI4LTEuMS0wLjI4LTEuNTgsMGwtNTEuMDcsMjkuNDhjLTAuNDksMC4yOS0wLjgxLDAuODQtMC44MSwxLjR2NTguOThjMCwwLjU2LDAuMzIsMS4wOSwwLjgxLDEuMzZsMTQsOC4wOSAgYzcuNTksMy44LDEyLjI1LTAuNjcsMTIuMjUtNS4xN1YxMjIuNmMwLTAuODIsMC42Ni0xLjQ3LDEuNDgtMS40N2g2LjQ4YzAuODEsMCwxLjQ4LDAuNjUsMS40OCwxLjQ3djU4LjIzICBjMCwxMC4xNC01LjUyLDE1Ljk2LTE1LjEzLDE1Ljk2Yy0yLjk1LDAtNS4yOCwwLTExLjc3LTMuMmwtMTMuNC03LjcyYy0zLjMxLTEuOTEtNS4zNi01LjQ5LTUuMzYtOS4zMnYtNTguOTggIGMwLTMuODMsMi4wNS03LjQxLDUuMzYtOS4zMWw1MS4xLTI5LjUzYzMuMjQtMS44Myw3LjUzLTEuODMsMTAuNzQsMGw1MS4xLDI5LjUzYzMuMzEsMS45MSw1LjM3LDUuNDgsNS4zNyw5LjMxdjU4Ljk4ICBjMCwzLjgzLTIuMDYsNy4zOS01LjM3LDkuMzJsLTUxLjEsMjkuNTFDNzEzLjY1LDIxNi4zMiw3MTEuOCwyMTYuODEsNzA5LjksMjE2LjgxTDcwOS45LDIxNi44MXoiLz4mI3hhOyYjeGE7PHBhdGggaWQ9InBhdGgxODUwOCIgaW5rc2NhcGU6Y29ubmVjdG9yLWN1cnZhdHVyZT0iMCIgc3R5bGU9ImZpbGw6Izc4Qjc0MzsiIGQ9Ik03MjUuNjksMTc2LjE4Yy0yMi4zNywwLTI3LjA1LTEwLjI3LTI3LjA1LTE4Ljg4ICBjMC0wLjgyLDAuNjYtMS40NywxLjQ4LTEuNDdoNi42MWMwLjc0LDAsMS4zNSwwLjUzLDEuNDcsMS4yNWMwLjk5LDYuNzMsMy45NywxMC4xMiwxNy40OSwxMC4xMmMxMC43NiwwLDE1LjM1LTIuNDMsMTUuMzUtOC4xNSAgYzAtMy4yOS0xLjMtNS43My0xOC4wMy03LjM3Yy0xMy45OC0xLjM4LTIyLjYzLTQuNDctMjIuNjMtMTUuNjZjMC0xMC4zMSw4LjY5LTE2LjQ2LDIzLjI2LTE2LjQ2YzE2LjM3LDAsMjQuNDcsNS42OCwyNS41LDE3Ljg4ICBjMC4wNCwwLjQxLTAuMTEsMC44Mi0wLjM5LDEuMTNjLTAuMjgsMC4zLTAuNjcsMC40Ny0xLjA4LDAuNDdoLTYuNjRjLTAuNjgsMC0xLjI5LTAuNDktMS40My0xLjE1Yy0xLjU5LTcuMDgtNS40Ni05LjM0LTE1Ljk2LTkuMzQgIGMtMTEuNzUsMC0xMy4xMiw0LjA5LTEzLjEyLDcuMTZjMCwzLjcyLDEuNjEsNC44LDE3LjQ4LDYuOWMxNS43MSwyLjA4LDIzLjE3LDUuMDIsMjMuMTcsMTYuMDUgIEM3NTEuMTcsMTY5LjgsNzQxLjg5LDE3Ni4xOCw3MjUuNjksMTc2LjE4TDcyNS42OSwxNzYuMTh6Ii8+JiN4YTsmI3hhOzxwYXRoIGlkPSJwYXRoMTg1MTYiIGlua3NjYXBlOmNvbm5lY3Rvci1jdXJ2YXR1cmU9IjAiIHN0eWxlPSJmaWxsOiM3OEI3NDM7IiBkPSJNNTEwLjc0LDEzNC41N2MwLjM5LTAuMjMsMC44Ny0wLjIzLDEuMjYsMGwxMC40LDYgIGMwLjM5LDAuMjMsMC42MiwwLjY0LDAuNjIsMS4wOXYxMi4wMWMwLDAuNDQtMC4yMywwLjg2LTAuNjIsMS4wOGwtMTAuNCw2Yy0wLjM5LDAuMjMtMC44NywwLjIzLTEuMjYsMGwtMTAuMzktNiAgYy0wLjM5LTAuMjItMC42My0wLjY0LTAuNjMtMS4wOHYtMTIuMDFjMC0wLjQ1LDAuMjQtMC44NiwwLjYzLTEuMDlMNTEwLjc0LDEzNC41N3oiLz4mI3hhOyYjeGE7PHBhdGggaWQ9InBhdGgxODUyNCIgaW5rc2NhcGU6Y29ubmVjdG9yLWN1cnZhdHVyZT0iMCIgc3R5bGU9ImZpbGw6Izc4Qjc0MzsiIGQ9Ik03OTUuNjUsOTQuMDNoMS43MmMxLjQxLDAsMS42Ny0wLjk5LDEuNjctMS41NiAgYzAtMS41Mi0xLjA0LTEuNTItMS42MS0xLjUyaC0xLjc4Vjk0LjAzeiBNNzkzLjU3LDg5LjE4aDMuOGMxLjMxLDAsMy44NiwwLDMuODYsMi45M2MwLDIuMDItMS4zLDIuNDQtMi4wOSwyLjcgIGMxLjUyLDAuMTEsMS42MiwxLjEsMS44MywyLjVjMC4xMSwwLjg5LDAuMjYsMi40LDAuNTcsMi45MmgtMi4zNGMtMC4wNi0wLjUyLTAuNDItMy4zMy0wLjQyLTMuNDljLTAuMTUtMC42Mi0wLjM3LTAuOTQtMS4xNC0wLjk0ICBoLTEuOTN2NC40M2gtMi4xNEw3OTMuNTcsODkuMTh6IE03ODkuMDEsOTQuNjhjMCw0LjU5LDMuNyw4LjI5LDguMjMsOC4yOWM0LjU5LDAsOC4yOS0zLjc4LDguMjktOC4yOWMwLTQuNTgtMy43NS04LjIzLTguMjktOC4yMyAgQzc5Mi43Niw4Ni40NSw3ODkuMDEsOTAuMDQsNzg5LjAxLDk0LjY4eiBNODA3LjEyLDk0LjcxYzAsNS40Mi00LjQzLDkuODUtOS44NSw5Ljg1Yy01LjM3LDAtOS44NS00LjM4LTkuODUtOS44NSAgYzAtNS41OCw0LjU5LTkuODUsOS44NS05Ljg1QzgwMi41OCw4NC44Niw4MDcuMTIsODkuMTMsODA3LjEyLDk0LjcxeiIvPiYjeGE7PC9zdmc+;" parent="1" vertex="1">
          <mxGeometry x="-511" y="296.30999999999995" width="140" height="37.69" as="geometry" />
        </mxCell>
        <mxCell id="5-FgoGMA3iOS2s11DoEu-1" value="DEBEZIUM" style="shape=image;verticalLabelPosition=bottom;verticalAlign=top;imageAspect=0;image=data:image/svg+xml,PHN2ZyB4bWxuczp4bGluaz0iaHR0cDovL3d3dy53My5vcmcvMTk5OS94bGluayIgeG1sbnM9Imh0dHA6Ly93d3cudzMub3JnLzIwMDAvc3ZnIiB4bWw6c3BhY2U9InByZXNlcnZlIiBzdHlsZT0iZW5hYmxlLWJhY2tncm91bmQ6bmV3IDAgMCA2NCA2NDsiIGhlaWdodD0iNjQiIHdpZHRoPSI2NCIgdmlld0JveD0iMCAwIDY0IDY0IiB5PSIwcHgiIHg9IjBweCIgaWQ9IkxheWVyXzEiIHZlcnNpb249IjEuMSI+JiN4YTs8c3R5bGUgdHlwZT0idGV4dC9jc3MiPiYjeGE7CS5zdDB7ZmlsbDp1cmwoI1NWR0lEXzFfKTt9JiN4YTsJLnN0MXtmaWxsOnVybCgjU1ZHSURfMl8pO30mI3hhOwkuc3Qye2ZpbGw6dXJsKCNTVkdJRF8zXyk7fSYjeGE7CS5zdDN7ZmlsbDp1cmwoI1NWR0lEXzRfKTt9JiN4YTsJLnN0NHtmaWxsOnVybCgjU1ZHSURfNV8pO30mI3hhOzwvc3R5bGU+JiN4YTs8Zz4mI3hhOwkmI3hhOwkJPGxpbmVhckdyYWRpZW50IGdyYWRpZW50VHJhbnNmb3JtPSJtYXRyaXgoMSAwIDAgLTEgMCA2NS4wOTQpIiB5Mj0iOS4zNzA4IiB4Mj0iNTUuNzMzIiB5MT0iNTUuNDUzNyIgeDE9IjkuNjUwMSIgZ3JhZGllbnRVbml0cz0idXNlclNwYWNlT25Vc2UiIGlkPSJTVkdJRF8xXyI+JiN4YTsJCTxzdG9wIHN0eWxlPSJzdG9wLWNvbG9yOiM5MUQ0NDMiIG9mZnNldD0iMCIvPiYjeGE7CQk8c3RvcCBzdHlsZT0ic3RvcC1jb2xvcjojNDhCRkUwIiBvZmZzZXQ9IjEiLz4mI3hhOwk8L2xpbmVhckdyYWRpZW50PiYjeGE7CTxwYXRoIGQ9Ik00NS44LDU1LjljMCw0LjUsMy42LDguMSw4LjEsOC4xaDEwVjU0YzAtNC41LTMuNi04LjEtOC4xLTguMUg1NGMtNy4xLDAtMTIuOS01LjgtMTIuOS0xMi45VjMxJiMxMDsmIzk7JiM5O2MwLTQuNS0zLjYtOC4xLTguMS04LjFIMzFjLTcuMSwwLTEyLjktNS44LTEyLjktMTIuOWwwLDBWOC4xQzE4LjIsMy42LDE0LjUsMCwxMCwwSDB2MTBjMCw0LjUsMy42LDguMSw4LjEsOC4xSDEwJiMxMDsmIzk7JiM5O2M3LjEsMCwxMi45LDUuOCwxMi45LDEyLjl2MS45YzAsNC41LDMuNiw4LjEsOC4xLDguMUgzM2M3LjEsMCwxMi45LDUuOCwxMi45LDEyLjlsMCwwVjU1Ljl6IiBjbGFzcz0ic3QwIi8+JiN4YTsJJiN4YTsJCTxsaW5lYXJHcmFkaWVudCBncmFkaWVudFRyYW5zZm9ybT0ibWF0cml4KDEgMCAwIC0xIDAgNjUuMDk0KSIgeTI9IjIwLjgyNyIgeDI9IjY3LjE4OTMiIHkxPSI2Ni45MSIgeDE9IjIxLjEwNjQiIGdyYWRpZW50VW5pdHM9InVzZXJTcGFjZU9uVXNlIiBpZD0iU1ZHSURfMl8iPiYjeGE7CQk8c3RvcCBzdHlsZT0ic3RvcC1jb2xvcjojOTFENDQzIiBvZmZzZXQ9IjAiLz4mI3hhOwkJPHN0b3Agc3R5bGU9InN0b3AtY29sb3I6IzQ4QkZFMCIgb2Zmc2V0PSIxIi8+JiN4YTsJPC9saW5lYXJHcmFkaWVudD4mI3hhOwk8cGF0aCBkPSJNNjQsMzFjMC00LjUtMy42LTguMS04LjEtOC4xSDU0Yy03LjEsMC0xMi45LTUuOC0xMi45LTEyLjlWOC4xQzQxLDMuNiwzNy40LDAsMzIuOSwwaC0xMHYxMC4xJiMxMDsmIzk7JiM5O2MwLjEsNC40LDMuNyw4LDguMSw4SDMzYzcuMSwwLDEyLjksNS44LDEyLjksMTIuOWwwLDB2MS45YzAsNC41LDMuNiw4LjEsOC4xLDguMUg2NFYzMXoiIGNsYXNzPSJzdDEiLz4mI3hhOwkmI3hhOwkJPGxpbmVhckdyYWRpZW50IGdyYWRpZW50VHJhbnNmb3JtPSJtYXRyaXgoMSAwIDAgLTEgMCA2NS4wOTQpIiB5Mj0iMzIuMjQ5NyIgeDI9Ijc4LjYxMTkiIHkxPSI3OC4zMzI2IiB4MT0iMzIuNTI5IiBncmFkaWVudFVuaXRzPSJ1c2VyU3BhY2VPblVzZSIgaWQ9IlNWR0lEXzNfIj4mI3hhOwkJPHN0b3Agc3R5bGU9InN0b3AtY29sb3I6IzkxRDQ0MyIgb2Zmc2V0PSIwIi8+JiN4YTsJCTxzdG9wIHN0eWxlPSJzdG9wLWNvbG9yOiM0OEJGRTAiIG9mZnNldD0iMSIvPiYjeGE7CTwvbGluZWFyR3JhZGllbnQ+JiN4YTsJPHBhdGggZD0iTTY0LDguMWMwLTQuMy0zLjUtNy45LTcuOC04LjFINDUuN3YxMC4xYzAuMSw0LjQsMy43LDgsOC4xLDhINjRWOC4xeiIgY2xhc3M9InN0MiIvPiYjeGE7CSYjeGE7CQk8bGluZWFyR3JhZGllbnQgZ3JhZGllbnRUcmFuc2Zvcm09Im1hdHJpeCgxIDAgMCAtMSAwIDY1LjA5NCkiIHkyPSItMi4wOTM3IiB4Mj0iNDQuMjYzNiIgeTE9IjQzLjk4OTIiIHgxPSItMS44MTkzIiBncmFkaWVudFVuaXRzPSJ1c2VyU3BhY2VPblVzZSIgaWQ9IlNWR0lEXzRfIj4mI3hhOwkJPHN0b3Agc3R5bGU9InN0b3AtY29sb3I6IzkxRDQ0MyIgb2Zmc2V0PSIwIi8+JiN4YTsJCTxzdG9wIHN0eWxlPSJzdG9wLWNvbG9yOiM0OEJGRTAiIG9mZnNldD0iMSIvPiYjeGE7CTwvbGluZWFyR3JhZGllbnQ+JiN4YTsJPHBhdGggZD0iTTAsMzNjMCw0LjUsMy42LDguMSw4LjEsOC4xSDEwYzcuMSwwLDEyLjksNS44LDEyLjksMTIuOXYxLjljMCw0LjUsMy42LDguMSw4LjEsOC4xaDEwVjUzLjkmIzEwOyYjOTsmIzk7Yy0wLjEtNC40LTMuNy04LTguMS04SDMxYy03LjEsMC0xMi45LTUuOC0xMi45LTEyLjlsMCwwdi0xLjljMC00LjUtMy42LTguMS04LjEtOC4xSDBWMzN6IiBjbGFzcz0ic3QzIi8+JiN4YTsJJiN4YTsJCTxsaW5lYXJHcmFkaWVudCBncmFkaWVudFRyYW5zZm9ybT0ibWF0cml4KDEgMCAwIC0xIDAgNjUuMDk0KSIgeTI9Ii0xMy41MTUyIiB4Mj0iMzIuODQyMiIgeTE9IjMyLjU2NzgiIHgxPSItMTMuMjQwNyIgZ3JhZGllbnRVbml0cz0idXNlclNwYWNlT25Vc2UiIGlkPSJTVkdJRF81XyI+JiN4YTsJCTxzdG9wIHN0eWxlPSJzdG9wLWNvbG9yOiM5MUQ0NDMiIG9mZnNldD0iMCIvPiYjeGE7CQk8c3RvcCBzdHlsZT0ic3RvcC1jb2xvcjojNDhCRkUwIiBvZmZzZXQ9IjEiLz4mI3hhOwk8L2xpbmVhckdyYWRpZW50PiYjeGE7CTxwYXRoIGQ9Ik0wLDU1LjljMCw0LjMsMy41LDcuOSw3LjgsOC4xaDEwLjVWNTMuOWMtMC4xLTQuNC0zLjctOC04LjEtOEgwVjU1Ljl6IiBjbGFzcz0ic3Q0Ii8+JiN4YTs8L2c+JiN4YTs8L3N2Zz4=;" parent="1" vertex="1">
          <mxGeometry x="-170" y="290" width="44" height="44" as="geometry" />
        </mxCell>
        <mxCell id="5-FgoGMA3iOS2s11DoEu-5" value="MONITOR&#xa;write log in terminal" style="shape=image;verticalLabelPosition=bottom;verticalAlign=top;imageAspect=0;image=data:image/svg+xml,PHN2ZyB4bWxuczp4bGluaz0iaHR0cDovL3d3dy53My5vcmcvMTk5OS94bGluayIgeG1sbnM9Imh0dHA6Ly93d3cudzMub3JnLzIwMDAvc3ZnIiB4bWw6c3BhY2U9InByZXNlcnZlIiB2aWV3Qm94PSIwIDAgNTExLjk5OCA1MTEuOTk4IiBpZD0iTGF5ZXJfMSIgdmVyc2lvbj0iMS4xIiB3aWR0aD0iODAwcHgiIGhlaWdodD0iODAwcHgiPiYjeGE7PGc+JiN4YTsJPHBhdGggZD0iTTI1My40NjQsOTQuODY5Yy0yMy42NTgsMTYuNjM5LTUwLjQ3MSwzNS40OTgtNjQuODM4LDY2LjY5OSYjMTA7JiM5OyYjOTtjLTI0Ljk1NCw1NC40MzUsNTEuMDYyLDExMy44MTIsNTQuMzExLDExNi4zMTNjMC43NTUsMC41ODEsMS42NTksMC44NzEsMi41NiwwLjg3MWMwLjk1NywwLDEuOTE1LTAuMzI3LDIuNjkzLTAuOTc5JiMxMDsmIzk7JiM5O2MxLjUwOS0xLjI2MiwxLjkzNy0zLjQwNiwxLjAzMS01LjE1MmMtMC4yNzUtMC41My0yNy41NjEtNTMuNTMtMjYuNTQ3LTkxLjU1MmMwLjM1OS0xMy4yNDMsMTguODkyLTI4LjI2NiwzOC41MTItNDQuMTcxJiMxMDsmIzk7JiM5O2MxNy45Ny0xNC41NjgsMzguMzQtMzEuMDc5LDUwLjI1OC01MC4zOTRjMjYuMTY0LTQyLjUxNi0yLjkxNi04NC4zMjItMy4yMTMtODQuNzRjLTEuMTU1LTEuNjIyLTMuMjg3LTIuMjA5LTUuMTEtMS40MSYjMTA7JiM5OyYjOTtjLTEuODIxLDAuODA0LTIuODMsMi43NzMtMi40MTQsNC43MmMwLjA1OSwwLjI3Nyw1LjcxNCwyNy45MjMtMTAuMDIyLDU2LjQwNkMyODQuMjAzLDczLjI1LDI2OS45NTksODMuMjY4LDI1My40NjQsOTQuODY5eiIgc3R5bGU9ImZpbGw6I0RCMzgwRTsiLz4mI3hhOwk8cGF0aCBkPSJNMzUzLjEzNywxMTMuNjE3YzEuNjY5LTEuMjU3LDIuMTU5LTMuNTUsMS4xNS01LjM4Yy0xLjAxMS0xLjgzLTMuMjExLTIuNjM3LTUuMTY1LTEuODk1JiMxMDsmIzk7JiM5O2MtNC4wMTksMS41MjgtOTguNDE2LDM3LjkxNS05OC40MTYsODEuODhjMCwzMC4zMDcsMTIuOTQ2LDQ2LjMxNywyMi4zOTksNTguMDA5YzMuNzA4LDQuNTg2LDYuOTA5LDguNTQ2LDcuOTY0LDExLjkyNyYjMTA7JiM5OyYjOTtjMi45Nyw5Ljc0My00LjA2NiwyNy4zNTMtNy4wMjUsMzMuMzE3Yy0wLjg1MywxLjcxNC0wLjQzNSwzLjc5MiwxLjAxNiw1LjA0NGMwLjc4NCwwLjY3NywxLjc2MywxLjAyMSwyLjc0MywxLjAyMSYjMTA7JiM5OyYjOTtjMC44MzQsMCwxLjY3Mi0wLjI0OCwyLjM5Ni0wLjc1MmMxLjYyMy0xLjEyOCwzOS42NjctMjguMDI2LDMyLjg0NC02MC40MzNjLTIuNTQyLTEyLjMxOC04LjU5NS0yMS4zMTgtMTMuOTM2LTI5LjI2JiMxMDsmIzk7JiM5O2MtOC4yNzQtMTIuMzA1LTE0LjI1LTIxLjE5My01LjE4NC0zNy42MDlDMzA0LjU0NSwxNTAuMzM4LDM1Mi42NSwxMTMuOTgxLDM1My4xMzcsMTEzLjYxN3oiIHN0eWxlPSJmaWxsOiNEQjM4MEU7Ii8+JiN4YTs8L2c+JiN4YTs8Zz4mI3hhOwk8cGF0aCBkPSJNMTA3LjQxOCwyOTguMjM2Yy0xLjYxOCw0Ljg0NS0wLjg1NCw5LjY1MSwyLjIwNywxMy45MDNjMTAuMjMzLDE0LjIwNyw0Ni40OCwyMi4wMjksMTAyLjA2OCwyMi4wMjkmIzEwOyYjOTsmIzk7YzAuMDAzLDAsMC4wMDUsMCwwLjAwNywwYzcuNTMyLDAsMTUuNDg0LTAuMTQ4LDIzLjYyOS0wLjQ0Yzg4Ljg3NS0zLjE4MSwxMjEuODM5LTMwLjg2OSwxMjMuMTk5LTMyLjA0NiYjMTA7JiM5OyYjOTtjMS40ODItMS4yODMsMS44NzgtMy40MTksMC45NTctNS4xNDdjLTAuOTIyLTEuNzI3LTIuOTA5LTIuNTk1LTQuODA4LTIuMDcyYy0zMS4zMDEsOC41NDYtODkuNzQ4LDExLjU4LTEzMC4yODgsMTEuNTgmIzEwOyYjOTsmIzk7Yy00NS4zNjMsMC02OC40NjUtMy4yNjgtNzQuMTIxLTUuNjgxYzIuOTAyLTMuOTg1LDIwLjgwMi0xMS4xMDEsNDIuOTgzLTE1LjQ2NGMyLjEyLTAuNDE2LDMuNTc3LTIuMzc0LDMuMzY3LTQuNTI0JiMxMDsmIzk7JiM5O3MtMi4wMTYtMy43OS00LjE3Ny0zLjc5QzE3OS40MzksMjc2LjU4NCwxMTQuMjM0LDI3Ny42MjgsMTA3LjQxOCwyOTguMjM2eiIgc3R5bGU9ImZpbGw6IzczQTFGQjsiLz4mI3hhOwk8cGF0aCBkPSJNNDA0LjgxMiwyNjkuNzE4Yy0xOC4zMzEsMC0zNS43MTQsOS4xODgtMzYuNDQ2LDkuNTc3Yy0xLjY5NSwwLjkwOC0yLjU1NSwyLjg1Mi0yLjA5LDQuNzImIzEwOyYjOTsmIzk7YzAuNDY3LDEuODY1LDIuMTQ0LDMuMTc2LDQuMDY3LDMuMTc4YzAuMzg5LDAsMzkuMTAyLDAuMzE3LDQyLjYwOCwyMi40MzZjMy4xMDYsMTkuMDgyLTM2LjYyOSw1MC01Mi4yMDIsNjAuMzA0JiMxMDsmIzk7JiM5O2MtMS42ODIsMS4xMTMtMi4zMzUsMy4yNjMtMS41NTQsNS4xMjNjMC42NjUsMS41ODMsMi4yMDYsMi41NzMsMy44NjgsMi41NzNjMC4yOSwwLDAuNTg0LTAuMDMsMC44NzYtMC4wOTImIzEwOyYjOTsmIzk7YzMuNjk2LTAuNzkxLDkwLjQwNi0xOS44OTksODEuMjM4LTcwLjM4NEM0MzkuNTg0LDI3Ni4yMTMsNDIwLjEzOCwyNjkuNzE4LDQwNC44MTIsMjY5LjcxOHoiIHN0eWxlPSJmaWxsOiM3M0ExRkI7Ii8+JiN4YTsJPHBhdGggZD0iTTM0NS4zNDcsMzYzLjc1NWMwLjMwMi0xLjYxNy0wLjM3MS0zLjI2Mi0xLjcxNy00LjIwN2wtMjAuNzkxLTE0LjU2MyYjMTA7JiM5OyYjOTtjLTEuMDE0LTAuNzEtMi4yOTUtMC45MzMtMy40ODUtMC42MThjLTAuMjE3LDAuMDU1LTIxLjk1OSw1Ljc3MS01My41MjUsOS4yNzZjLTEyLjUyOCwxLjQwNS0yNi41NiwyLjE0Ny00MC41ODIsMi4xNDcmIzEwOyYjOTsmIzk7Yy0zMS41NTgsMC01Mi4xOTItMy43MDgtNTUuMTk3LTYuNDI4Yy0wLjM5OC0wLjc2NC0wLjI3Mi0xLjExMS0wLjIwMS0xLjMwNGMwLjU0Ni0xLjUxOCwzLjQ3Mi0zLjMyMiw1LjM1OC00LjAzNiYjMTA7JiM5OyYjOTtjMi4wODMtMC43NzEsMy4yMDYtMy4wMzMsMi41NTgtNS4xNTdjLTAuNjQ2LTIuMTI3LTIuODM3LTMuMzc4LTQuOTk5LTIuODU5Yy0yMC44NTYsNS4wMzMtMzEuMDU0LDEyLjA3MS0zMC4zMTIsMjAuOTE4JiMxMDsmIzk7JiM5O2MxLjMxOCwxNS42ODYsMzcuNjUsMjMuNzM3LDY4LjM2NSwyNS44NjVjNC40MTcsMC4zMDIsOS4xOTQsMC40NTUsMTQuMTk1LDAuNDU1YzAuMDAzLDAsMC4wMDUsMCwwLjAwOCwwJiMxMDsmIzk7JiM5O2M1MS4wNzQsMCwxMTYuNTUtMTYuMDI1LDExNy4yMDQtMTYuMTg4QzM0My44MjUsMzY2LjY2NiwzNDUuMDQ0LDM2NS4zNzUsMzQ1LjM0NywzNjMuNzU1eiIgc3R5bGU9ImZpbGw6IzczQTFGQjsiLz4mI3hhOwk8cGF0aCBkPSJNMTg4LjYwMiwzOTcuNDE5YzEuNTc1LTEuMDI0LDIuMjczLTIuOTcxLDEuNzE0LTQuNzY0Yy0wLjU1Ny0xLjc5My0yLjIzNC0yLjk3MS00LjExOC0yLjk0NiYjMTA7JiM5OyYjOTtjLTIuNzk1LDAuMDc0LTI3LjM0OSwxLjE4Mi0yOS4wNjgsMTYuODE1Yy0wLjUyLDQuNjcyLDAuODE4LDguOTQxLDMuOTc5LDEyLjY4NmM4LjgxNiwxMC40NDgsMzIuNjE0LDE2LjY1OCw3Mi43NDEsMTguOTg0JiMxMDsmIzk7JiM5O2M0Ljc0NywwLjI4NSw5LjU2OSwwLjQyOCwxNC4zMzQsMC40MjhjNTEuMDE1LDAsODUuMzczLTE1Ljk3Myw4Ni44MTItMTYuNjUzYzEuMzk1LTAuNjYsMi4zMTUtMi4wMzEsMi4zOTctMy41NzEmIzEwOyYjOTsmIzk7cy0wLjY4Ny0zLjAwMS0yLjAwMy0zLjgwNmwtMjYuMjc1LTE2LjA0Yy0wLjkxMi0wLjU1Ni0yLjAwMy0wLjc0LTMuMDQzLTAuNTI3Yy0wLjE2NiwwLjAzNS0xNi44NDksMy40OTUtNDIuMDI2LDYuOTEzJiMxMDsmIzk7JiM5O2MtNC43NjQsMC42NDgtMTAuNzMsMC45NzctMTcuNzMsMC45NzdjLTI1LjE1LDAtNTMuMTI0LTQuMTA5LTU4LjQ4OS02LjhDMTg3Ljc0OSwzOTguNjEzLDE4Ny44NDgsMzk3Ljk3NSwxODguNjAyLDM5Ny40MTl6IiBzdHlsZT0iZmlsbDojNzNBMUZCOyIvPiYjeGE7CTxwYXRoIGQ9Ik0yMjQuNDA4LDQ4Ni44NWMxMTYuODU0LTAuMDk5LDE3OS41NzEtMjAuODgsMTkxLjY1My0zMy45NTdjNC4yNzctNC42MjYsNC43MzktOS4wMDYsNC4zNzYtMTEuODY3JiMxMDsmIzk7JiM5O2MtMC44OTgtNy4wNC03LjMxMS0xMS4zNS04LjAzOC0xMS44MThjLTEuNzU0LTEuMTI4LTQuMTA4LTAuODMzLTUuNDc2LDAuNzQ1Yy0xLjM2NSwxLjU3OC0xLjM5NywzLjg4NC0wLjAyNyw1LjQ2MSYjMTA7JiM5OyYjOTtjMC43MzcsMC45NDgsMS4xNjMsMi41MzUtMC45OTIsNC42OTJjLTQuODMsNC41MTEtNTMuNTQ1LDE4LjIwNC0xMzQuNjU2LDIyLjMxOGMtMTEuMTExLDAuNTc3LTIyLjc2NSwwLjg3MS0zNC42MzYsMC44NzMmIzEwOyYjOTsmIzk7Yy03Mi42MjMsMC0xMjUuNzcyLTkuOTQ4LTEzMi43NDktMTUuNzQ0YzIuNjg5LTMuODY0LDIxLjQ4OS0xMC4wMzcsNDEuNDgyLTEzLjUyOWMyLjI1My0wLjM5MywzLjc3NS0yLjUxNiwzLjQyNi00Ljc3NiYjMTA7JiM5OyYjOTtjLTAuMzQ5LTIuMjU5LTIuNDMyLTMuODE0LTQuNzA5LTMuNTE5Yy0wLjU2NCwwLjA3Ny0yLjQ3OCwwLjE5MS00LjY5NCwwLjMyN2MtMzIuOTg4LDIuMDE0LTcxLjEwOSw2LjUwMy03My4wOTgsMjMuNSYjMTA7JiM5OyYjOTtjLTAuNjA0LDUuMTc5LDAuOTM1LDkuODgxLDQuNTc2LDEzLjk3M2M4LjkwOSwxMC4wMSwzNC41MTYsMjMuMzE5LDE1My41NTgsMjMuMzE5QzIyNC40MDYsNDg2Ljg1LDIyNC40MDYsNDg2Ljg1LDIyNC40MDgsNDg2Ljg1eiIgc3R5bGU9ImZpbGw6IzczQTFGQjsiLz4mI3hhOwk8cGF0aCBkPSJNNDM5LjAxMyw0NTYuNTc4Yy0xLjY1Mi0wLjc2NC0zLjYwNC0wLjM3OC00LjgzNiwwLjk1MmMtMC4xNzEsMC4xODUtMTcuNzQsMTguNTU2LTcwLjU2NCwyOS4zNDQmIzEwOyYjOTsmIzk7Yy0yMC4yMjMsNC4wNTItNTguMTgzLDYuMTA3LTExMi44MjYsNi4xMDdjLTU0Ljc0NSwwLTEwNi44MzgtMi4xNTQtMTA3LjM1Ny0yLjE3NmMtMi4xNzYtMC4xMDYtNC4wMzcsMS40NzYtNC4zMzMsMy42MTgmIzEwOyYjOTsmIzk7Yy0wLjI5NywyLjE0LDEuMDgzLDQuMTU4LDMuMTg0LDQuNjU4YzAuNTQyLDAuMTI4LDU1LjEzNSwxMi45MTgsMTI5Ljc3OSwxMi45MThjMzUuODAxLDAsNzAuNjM5LTIuOTA3LDEwMy41NDgtOC42NDUmIzEwOyYjOTsmIzk7YzYxLjM2MS0xMC43NTcsNjUuNjU3LTQxLjE4Myw2NS44MS00Mi40NzNDNDQxLjYzMiw0NTkuMDc4LDQ0MC42NjIsNDU3LjM0Miw0MzkuMDEzLDQ1Ni41Nzh6IiBzdHlsZT0iZmlsbDojNzNBMUZCOyIvPiYjeGE7PC9nPiYjeGE7PC9zdmc+;" parent="1" vertex="1">
          <mxGeometry x="-160" y="113.5" width="60" height="60" as="geometry" />
        </mxCell>
        <mxCell id="5-FgoGMA3iOS2s11DoEu-6" value="PRODUCE&lt;br&gt;topic: postgres.public.inventories" style="rounded=0;orthogonalLoop=1;jettySize=auto;html=1;fillColor=#dae8fc;strokeColor=#6c8ebf;" parent="1" source="5-FgoGMA3iOS2s11DoEu-1" target="ELrXMFgpvrQVn_nDHaCE-5" edge="1">
          <mxGeometry relative="1" as="geometry" />
        </mxCell>
      </root>
    </mxGraphModel>
  </diagram>
</mxfile>
